<svg xmlns="http://www.w3.org/2000/svg" width="980" height="980" viewBox="0 0 980 980">
<g>
<path d="M 515.47 879.84 C515.50,870.73 515.19,868.84 512.89,864.00 C509.71,857.30 504.98,852.35 497.29,847.68 C491.53,844.18 479.76,839.79 472.97,838.61 C469.81,838.06 469.25,838.31 467.67,840.99 C465.64,844.41 461.27,846.04 459.91,843.89 C459.43,843.12 459.02,841.25 459.02,839.73 C459.00,837.65 458.31,836.67 456.25,835.82 C442.32,830.06 436.48,825.82 432.93,818.86 C430.62,814.34 430.42,807.28 432.50,804.30 C437.37,797.36 450.91,800.41 448.53,807.91 C447.17,812.19 442.00,811.39 442.00,806.89 C442.00,804.48 441.59,804.00 439.52,804.00 C436.26,804.00 433.55,808.06 434.43,811.59 C436.12,818.31 445.47,825.73 455.89,828.63 C461.50,830.19 462.22,830.20 463.64,828.79 C464.67,827.76 464.96,826.46 464.50,825.01 C463.93,823.20 463.27,822.90 460.99,823.35 C457.97,823.96 455.62,822.23 456.82,820.30 C457.79,818.72 462.43,817.68 464.94,818.48 C467.34,819.24 470.00,823.84 470.00,827.22 C470.00,829.34 470.66,829.65 477.45,830.73 C484.98,831.93 494.57,836.02 500.75,840.66 C505.06,843.90 505.10,841.85 500.88,833.93 C492.88,818.91 472.37,800.91 443.00,783.14 C426.25,773.00 399.65,760.02 398.34,761.33 C397.77,761.90 413.85,772.89 430.42,783.25 C440.93,789.82 443.76,792.00 441.78,792.00 C438.87,792.00 414.25,783.71 409.50,781.13 C406.99,779.77 402.80,779.49 384.00,779.43 C366.46,779.37 359.76,778.97 353.60,777.61 C336.22,773.76 325.50,768.31 315.00,758.00 C307.48,750.61 305.04,746.20 303.52,737.18 L 302.45 730.86 L 292.79 727.06 C258.92,713.74 237.27,691.19 228.91,660.50 C227.31,654.61 226.57,648.29 226.12,636.50 C225.55,621.80 225.38,620.70 224.03,623.00 C223.04,624.68 222.44,629.29 222.18,637.02 C221.86,646.92 222.18,650.12 224.50,659.83 C225.99,666.04 226.98,671.35 226.70,671.63 C226.43,671.91 223.66,668.02 220.55,662.99 C207.40,641.73 205.55,635.71 205.52,614.00 C205.51,603.75 205.97,596.81 206.89,593.50 C209.31,584.82 214.72,575.88 225.02,563.53 C234.60,552.05 235.99,550.00 234.18,550.00 C233.34,550.00 229.17,554.59 213.31,573.00 C202.71,585.30 198.00,589.92 198.00,588.03 C198.00,587.29 200.70,581.54 204.00,575.26 C207.30,568.98 210.00,563.75 210.00,563.64 C210.00,563.53 208.09,563.62 205.75,563.84 L 201.50 564.23 L 203.56 561.86 C204.69,560.56 210.33,554.33 216.08,548.00 C227.09,535.90 232.54,529.20 231.89,528.56 C231.68,528.35 228.20,529.29 224.16,530.64 C220.09,532.01 215.18,532.97 213.16,532.80 C209.67,532.51 210.00,532.26 220.45,527.21 C236.49,519.48 244.09,513.05 246.46,505.24 L 247.14 502.98 L 242.42 505.49 C239.65,506.97 236.05,508.00 233.70,508.00 L 229.70 508.00 L 236.29 503.01 C239.92,500.27 244.00,496.56 245.37,494.76 C248.33,490.88 255.00,479.91 255.00,478.93 C255.00,478.55 250.84,478.06 245.75,477.83 C233.95,477.32 230.87,475.73 240.12,474.93 C252.46,473.87 262.22,467.13 275.13,450.76 C279.11,445.72 282.53,442.08 282.73,442.68 C283.09,443.77 273.67,459.87 264.22,474.29 C258.73,482.66 255.56,493.05 256.18,500.61 L 256.50 504.50 L 258.89 498.00 C261.53,490.85 264.75,485.27 267.55,482.99 C269.17,481.67 269.30,481.67 268.74,483.00 C268.40,483.83 266.87,487.42 265.35,491.00 C262.79,497.00 262.55,498.73 262.19,513.50 C261.76,531.32 263.27,543.22 267.50,555.39 C268.84,559.25 269.77,562.56 269.57,562.76 C268.63,563.71 263.83,555.70 261.02,548.49 C256.13,535.95 255.89,535.68 256.52,543.36 C257.25,552.27 259.89,559.88 267.17,574.00 C277.70,594.44 284.04,600.55 304.01,609.49 C319.56,616.44 327.69,621.18 338.65,629.64 C344.07,633.82 349.95,637.86 351.72,638.62 C366.26,644.85 379.06,630.88 373.47,614.88 C370.80,607.22 367.89,606.56 352.69,610.13 C344.66,612.01 343.83,612.41 345.45,613.59 C346.45,614.32 349.32,615.23 351.82,615.60 C359.16,616.70 362.96,621.93 359.68,626.42 C357.57,629.30 354.47,628.03 354.63,624.34 C354.76,621.31 354.67,621.25 349.22,620.68 C340.06,619.74 332.15,615.08 320.27,603.64 C296.21,580.47 284.68,560.30 280.98,534.93 C279.15,522.40 280.10,500.81 282.98,489.50 C285.19,480.78 288.07,474.57 286.45,482.00 C285.15,487.98 285.75,512.99 287.45,523.50 C290.49,542.30 299.72,565.13 311.31,582.50 C313.51,585.80 315.50,588.72 315.74,589.00 C315.97,589.27 317.06,588.26 318.16,586.75 C320.44,583.63 322.77,583.31 327.09,585.55 C329.93,587.01 332.00,590.40 332.00,593.57 C332.00,595.83 330.07,595.24 328.87,592.61 C327.30,589.18 323.51,587.63 321.53,589.62 C319.79,591.35 319.99,591.82 324.80,597.63 C328.59,602.21 333.75,605.41 338.87,606.37 C342.14,606.98 363.65,603.22 369.39,601.04 C372.18,599.98 372.56,598.03 371.38,590.89 L 370.78 587.28 L 361.64 586.72 C350.32,586.03 338.58,582.42 330.70,577.23 C318.40,569.11 307.42,556.08 303.06,544.44 C299.41,534.68 299.77,533.38 304.02,541.00 C314.49,559.78 327.26,571.49 345.15,578.72 C350.32,580.80 353.91,581.37 366.43,582.05 C383.70,583.00 389.91,584.44 402.50,590.44 C413.35,595.61 419.39,599.92 421.49,603.98 C423.49,607.85 422.12,607.86 416.54,604.03 C411.51,600.57 400.74,595.05 393.24,592.10 L 388.00 590.03 L 388.00 594.79 C388.00,601.78 386.06,604.00 379.94,604.00 C374.25,604.00 374.00,604.59 376.98,611.14 C378.29,614.04 378.96,617.70 378.98,622.05 C379.02,633.52 372.70,642.54 363.27,644.48 C358.25,645.52 349.93,642.59 343.33,637.46 C331.37,628.17 323.35,622.68 318.24,620.30 C310.37,616.63 309.80,618.03 317.35,622.45 C326.63,627.88 335.86,637.30 340.46,646.05 L 344.25 653.26 L 343.04 662.13 C340.07,683.87 348.89,704.59 367.33,719.17 C370.05,721.31 372.50,722.83 372.79,722.55 C373.08,722.26 371.08,719.65 368.36,716.76 C354.71,702.27 346.79,684.28 346.64,667.50 C346.57,658.31 349.44,650.00 352.69,650.00 C354.33,650.00 354.50,651.07 354.51,661.25 C354.53,673.72 356.08,679.47 362.24,689.87 C366.44,696.96 383.36,714.19 393.00,721.18 C404.14,729.27 410.06,732.59 437.09,745.92 C478.03,766.11 495.60,779.53 508.90,800.72 C512.84,807.00 516.92,818.17 517.05,823.00 C517.20,828.94 518.85,823.39 518.93,816.66 C519.03,808.25 522.60,791.80 526.35,782.42 C533.66,764.15 542.42,752.10 572.52,719.00 C598.51,690.41 603.87,682.68 607.48,668.54 C609.22,661.73 609.44,648.61 607.92,642.04 C605.29,630.61 596.44,618.87 586.82,614.07 C581.68,611.50 579.51,611.00 573.50,611.00 C564.24,611.00 556.98,614.47 547.12,623.60 C535.32,634.52 526.53,649.80 521.27,668.50 C519.80,673.72 518.28,678.00 517.89,678.00 C516.66,678.00 515.74,659.36 516.47,649.25 C518.46,621.91 524.29,609.21 542.79,591.92 C554.89,580.61 562.26,576.03 591.84,561.47 C607.04,553.98 619.68,547.66 619.93,547.41 C620.17,547.16 619.41,546.28 618.23,545.45 C613.73,542.30 613.54,532.54 617.90,528.59 C620.34,526.39 628.50,526.70 628.50,529.00 C628.50,530.00 627.43,530.53 625.28,530.60 C620.61,530.75 619.00,532.54 619.00,537.59 C619.00,540.99 619.46,542.18 621.12,543.06 C622.94,544.04 624.21,543.53 630.32,539.35 C639.32,533.20 651.51,521.26 656.70,513.50 C666.13,499.43 669.86,488.51 670.88,472.00 L 671.59 460.50 L 672.40 468.16 C673.91,482.36 670.92,497.32 663.53,512.50 C655.74,528.49 647.06,536.78 612.24,561.48 C603.46,567.71 600.15,571.31 597.59,577.44 C592.85,588.79 599.37,597.50 610.71,594.95 C619.92,592.89 625.28,586.07 626.60,574.75 C627.27,569.07 627.24,569.00 624.71,569.00 C621.32,569.00 618.00,573.28 618.00,577.67 C618.00,579.86 617.43,581.28 616.40,581.68 C612.75,583.08 611.81,575.46 615.00,570.24 C616.82,567.24 618.51,566.17 626.21,563.15 C627.76,562.54 629.77,560.40 630.92,558.16 C633.40,553.30 639.88,546.67 645.86,542.87 C652.04,538.95 657.13,538.97 661.10,542.94 L 664.04 545.88 L 668.92 535.69 C678.99,514.68 687.00,483.25 687.00,464.75 C687.00,459.94 687.39,456.00 687.86,456.00 C689.73,456.00 691.47,468.86 691.39,482.00 C691.26,502.56 686.27,522.61 675.59,545.47 C669.95,557.53 665.48,564.39 655.01,577.00 C647.08,586.56 644.00,590.88 644.00,592.44 C644.00,592.75 648.84,587.99 654.75,581.87 C666.34,569.86 673.78,563.83 692.50,551.30 C710.54,539.22 717.29,531.23 722.43,515.84 C726.22,504.51 728.01,494.82 727.92,486.18 L 727.84 478.50 L 725.52 487.64 C721.49,503.47 718.97,505.56 721.09,491.31 C725.01,464.91 720.65,440.30 709.44,425.63 C707.04,422.48 706.38,421.00 707.38,421.00 C709.01,421.00 713.74,425.35 718.78,431.50 C721.54,434.86 721.96,435.10 721.40,433.00 C717.86,419.56 710.82,410.17 698.38,402.31 C696.87,401.35 699.45,401.11 711.31,401.06 C725.74,401.00 732.82,400.01 737.97,397.34 C741.10,395.71 741.96,397.29 739.45,400.05 C737.85,401.82 732.37,403.85 724.50,405.59 C721.60,406.23 721.73,406.36 728.28,409.28 C732.01,410.95 734.90,412.81 734.70,413.41 C734.51,414.01 732.24,414.64 729.67,414.80 C727.10,414.97 725.00,415.50 725.00,415.98 C725.00,417.46 730.95,422.89 735.47,425.54 C741.50,429.07 751.57,430.95 765.00,431.05 C780.87,431.17 782.30,431.96 772.90,435.39 C768.79,436.89 762.29,438.93 758.46,439.93 L 751.50 441.75 L 755.50 443.51 C761.45,446.13 768.96,447.97 773.75,447.99 C776.09,447.99 778.00,448.41 778.00,448.91 C778.00,450.40 768.97,453.07 761.78,453.70 C758.08,454.02 755.27,454.62 755.52,455.04 C755.78,455.45 762.41,459.87 770.25,464.85 C778.09,469.84 785.85,475.04 787.50,476.42 L 790.50 478.93 L 787.10 478.96 C783.74,479.00 783.79,479.07 791.80,485.03 C799.40,490.69 804.55,495.78 803.62,496.71 C803.00,497.34 780.25,485.73 768.99,479.04 C763.50,475.78 759.00,473.43 759.00,473.82 C759.00,474.22 763.03,477.39 767.97,480.87 C789.28,495.91 799.76,511.56 801.63,531.16 C802.80,543.35 798.37,567.48 793.04,577.92 C791.17,581.59 784.24,588.57 783.35,587.68 C783.10,587.43 783.43,584.18 784.08,580.45 C785.44,572.64 784.72,560.64 782.60,555.78 C781.26,552.72 781.16,553.45 781.08,566.50 C780.90,595.90 774.64,617.36 759.44,640.75 C748.38,657.77 736.21,670.48 719.50,682.47 C702.54,694.64 701.12,693.59 715.12,679.24 C727.68,666.36 733.15,659.49 743.85,643.11 C760.66,617.38 766.17,601.83 766.21,580.00 C766.26,553.03 758.05,528.31 744.50,514.57 C736.42,506.38 730.40,504.44 734.38,511.31 C753.93,545.08 760.04,569.30 755.53,595.16 C750.81,622.21 732.55,654.75 707.34,681.01 C701.93,686.65 694.80,693.31 691.50,695.81 C688.20,698.31 681.56,703.91 676.75,708.26 C671.94,712.61 668.01,715.57 668.02,714.84 C668.03,714.10 671.92,709.00 676.65,703.50 C695.28,681.87 708.69,662.01 719.11,640.62 C729.27,619.76 731.20,611.50 731.65,587.00 L 732.01 567.50 L 726.02 587.50 C713.72,628.57 705.84,649.39 695.42,668.25 C681.29,693.86 667.11,711.03 627.67,750.29 C611.21,766.67 597.96,780.30 598.23,780.56 C598.49,780.82 602.48,779.03 607.10,776.57 C611.72,774.12 621.12,770.00 628.00,767.43 C643.22,761.73 648.66,759.06 656.66,753.39 C663.08,748.85 667.00,743.80 667.00,740.10 C667.00,736.26 664.21,736.55 659.51,740.88 C652.02,747.79 634.68,757.73 631.80,756.77 C630.83,756.44 642.50,745.41 658.50,731.53 C663.45,727.24 671.95,719.63 677.39,714.61 C688.49,704.38 691.63,702.09 697.77,699.68 C703.69,697.35 707.23,697.55 709.87,700.36 C716.66,707.59 713.64,723.10 702.61,737.68 C690.45,753.76 673.04,766.35 643.42,780.49 C609.02,796.92 610.52,796.01 610.37,800.57 C610.30,802.73 610.19,805.24 610.12,806.14 C610.05,807.04 608.03,808.70 605.63,809.84 C602.51,811.30 599.93,813.75 596.64,818.36 C594.10,821.91 589.78,826.78 587.04,829.18 C582.13,833.48 579.82,834.96 563.00,844.60 C558.33,847.28 552.11,851.78 549.19,854.60 C544.04,859.57 543.89,859.88 544.19,864.61 C544.50,869.48 544.52,869.50 547.88,869.34 L 551.27 869.18 L 549.23 871.22 C546.51,873.94 542.54,872.94 540.52,869.04 C538.48,865.10 538.64,861.40 541.06,856.06 C545.49,846.29 554.07,838.54 569.11,830.71 C580.14,824.97 581.80,823.91 591.75,816.25 C599.91,809.96 600.95,808.71 599.00,807.50 C598.45,807.16 598.00,805.33 598.00,803.44 C598.00,801.55 597.64,800.00 597.20,800.00 C595.74,800.00 584.56,808.70 580.11,813.31 C577.04,816.49 575.93,818.37 576.39,819.57 C576.75,820.51 576.35,822.34 575.50,823.64 C572.37,828.41 563.67,825.63 565.64,820.49 C566.25,818.90 567.39,818.90 571.25,820.49 C572.76,821.12 572.91,820.79 572.35,818.00 C571.75,814.99 572.23,814.28 580.13,806.61 C594.61,792.54 610.21,783.13 635.06,773.48 C653.23,766.42 668.21,759.29 676.09,753.95 C685.45,747.61 701.45,731.38 702.96,726.70 C705.51,718.79 700.90,714.38 695.06,719.14 C677.17,733.73 671.00,739.52 671.00,741.72 C671.00,750.10 658.19,759.30 628.21,772.43 C621.45,775.40 612.08,780.00 607.40,782.66 C584.73,795.54 555.17,821.76 543.59,839.26 C537.00,849.24 533.05,859.31 533.02,866.25 C532.99,872.15 531.45,872.40 529.93,866.75 C528.29,860.69 529.28,847.64 531.89,840.85 C537.26,826.90 564.38,791.60 592.46,762.00 C619.31,733.70 627.30,724.07 634.65,711.18 C647.48,688.71 652.17,664.95 649.91,634.01 C648.43,613.77 649.01,610.36 656.56,595.15 C663.09,581.97 663.59,579.07 658.45,584.04 C653.42,588.92 644.60,600.65 641.56,606.52 C640.14,609.26 638.24,615.07 637.36,619.43 C635.98,626.15 635.91,629.02 636.87,638.48 C641.14,680.64 634.19,704.73 608.73,736.00 C598.66,748.37 579.03,770.00 577.87,770.00 C576.67,770.00 576.39,770.47 587.02,754.50 C604.60,728.09 617.04,705.01 622.46,688.75 C625.27,680.32 627.98,664.49 627.99,656.44 C628.00,651.85 625.92,633.76 624.37,625.00 C623.87,622.12 623.99,621.72 625.08,622.75 C627.22,624.78 627.73,624.26 628.47,619.32 C630.37,606.68 637.38,590.57 649.08,572.00 C661.47,552.32 663.23,546.43 657.52,543.83 C652.96,541.75 646.00,546.43 646.00,551.57 C646.00,552.93 643.81,555.61 639.95,558.96 C631.94,565.93 631.17,567.29 630.00,576.48 C628.78,586.14 625.55,592.06 619.38,595.97 C610.68,601.49 602.76,600.80 596.61,593.99 C593.40,590.43 593.00,589.40 593.00,584.56 C593.00,581.57 593.46,577.92 594.02,576.45 C595.03,573.78 595.03,573.77 591.30,574.47 C571.73,578.14 546.40,594.85 533.17,612.81 C527.58,620.40 524.59,625.98 521.88,633.86 C518.74,642.98 519.75,642.86 525.12,633.46 C531.46,622.36 539.86,611.92 546.51,606.91 C571.69,587.89 601.22,594.91 614.90,623.17 C620.10,633.92 621.96,642.57 621.98,656.12 C622.01,670.61 618.91,682.65 610.97,698.91 C602.95,715.35 598.22,722.40 573.03,755.50 C555.90,778.01 542.02,801.41 535.67,818.50 C531.74,829.09 529.36,838.77 526.03,857.70 C522.98,875.05 520.33,884.14 517.16,888.05 C515.51,890.09 515.44,889.78 515.47,879.84 ZM 514.88 839.22 C513.81,828.54 510.40,818.88 504.68,810.28 C498.85,801.49 483.79,786.94 473.50,780.13 C461.05,771.89 431.91,758.22 385.66,738.91 C364.70,730.16 356.71,725.17 349.18,716.12 C340.26,705.41 332.21,687.29 328.01,668.50 C325.71,658.24 320.67,646.43 316.69,642.00 C311.94,636.71 306.85,633.00 304.35,633.00 C301.14,633.00 300.86,631.78 309.98,657.87 C320.06,686.74 326.01,697.63 339.50,711.91 C353.07,726.29 363.35,732.46 406.49,752.10 C425.23,760.64 464.17,784.15 479.50,796.19 C486.50,801.68 497.57,812.66 501.49,818.00 C506.00,824.15 510.49,833.30 512.54,840.50 C515.49,850.87 516.02,850.58 514.88,839.22 ZM 465.34 840.83 C466.66,838.73 465.47,835.88 463.58,836.61 C461.81,837.29 460.59,840.53 461.53,842.04 C462.36,843.39 464.07,842.84 465.34,840.83 ZM 530.56 809.97 C537.72,789.41 551.24,766.41 574.94,734.50 C580.25,727.35 584.99,720.83 585.47,720.00 C588.13,715.44 571.93,731.97 560.94,745.02 C534.93,775.91 524.44,798.70 523.42,826.50 L 522.98 838.50 L 524.98 829.39 C526.07,824.38 528.59,815.64 530.56,809.97 ZM 607.39 804.75 C608.19,803.48 608.19,802.52 607.39,801.25 C604.59,796.78 598.54,800.40 601.03,805.06 C602.34,807.50 605.77,807.33 607.39,804.75 ZM 392.00 774.01 C392.00,773.47 389.41,771.72 386.25,770.12 C378.22,766.06 367.36,759.56 353.95,750.78 C347.65,746.65 340.05,742.04 337.06,740.53 C330.28,737.09 308.18,729.77 306.93,730.54 C304.55,732.01 307.32,742.96 311.63,749.19 C316.52,756.24 328.32,761.28 331.80,757.80 C333.47,756.13 333.30,750.87 331.50,748.30 C330.67,747.12 328.44,745.64 326.54,745.01 C321.21,743.25 320.45,738.00 325.53,738.00 C328.88,738.00 334.75,744.12 335.56,748.48 C336.22,751.99 335.82,756.59 334.51,760.67 C333.88,762.62 334.70,763.28 342.15,766.86 C349.57,770.42 357.42,772.98 365.00,774.29 C370.26,775.21 392.00,774.98 392.00,774.01 ZM 680.12 725.72 C693.80,713.35 695.67,712.00 699.09,712.00 C702.01,712.00 706.98,716.31 707.03,718.89 C707.06,720.25 707.28,720.21 708.49,718.61 C712.50,713.32 710.61,700.98 705.80,701.02 C700.91,701.07 694.95,705.25 680.25,718.95 C671.86,726.76 665.00,733.50 665.00,733.91 C665.00,735.03 666.17,736.00 667.53,736.00 C668.19,736.00 673.86,731.37 680.12,725.72 ZM 343.00 728.83 C323.08,710.62 313.84,699.94 308.24,688.67 C306.56,685.28 302.20,673.95 298.57,663.50 C289.02,636.04 289.01,636.03 285.79,632.62 C282.36,628.98 282.43,629.36 286.74,638.00 C289.35,643.21 290.47,647.57 292.39,660.00 C293.72,668.53 295.12,676.29 295.51,677.25 C295.90,678.21 295.84,679.00 295.39,679.00 C294.57,679.00 292.07,676.34 285.53,668.50 C281.72,663.95 276.30,653.45 272.97,644.22 C268.45,631.66 268.27,637.47 272.70,652.98 C275.81,663.86 283.26,678.86 290.66,689.13 C298.66,700.24 313.70,714.36 324.06,720.49 C333.19,725.88 346.19,732.95 347.00,732.95 C347.27,732.95 345.48,731.10 343.00,728.83 ZM 307.00 722.04 C307.00,721.52 303.91,719.28 300.13,717.07 C282.99,707.07 268.22,693.52 258.95,679.33 C250.58,666.50 246.93,654.31 246.87,639.00 C246.82,624.45 249.38,613.50 257.93,591.74 C260.26,585.82 261.98,580.43 261.75,579.76 C261.15,577.96 254.78,587.19 249.15,598.00 C231.87,631.23 233.36,657.45 254.10,684.97 C260.88,693.97 274.54,706.50 285.44,713.70 C295.63,720.44 307.00,724.84 307.00,722.04 ZM 659.85 688.10 C673.48,667.71 697.09,627.31 699.60,620.10 C700.92,616.31 702.88,608.04 703.96,601.74 C705.04,595.44 707.27,586.58 708.92,582.05 C711.07,576.17 711.48,574.19 710.36,575.12 C708.22,576.89 704.68,585.14 701.51,595.71 C695.18,616.86 690.29,627.24 678.48,644.66 C673.95,651.35 668.51,660.01 666.41,663.91 C664.23,667.94 662.21,670.61 661.71,670.11 C661.21,669.61 661.57,664.57 662.55,658.37 C664.54,645.70 664.08,627.51 661.49,617.00 C660.61,613.42 659.80,607.92 659.70,604.76 C659.59,601.60 659.21,599.01 658.86,599.01 C657.43,598.99 654.72,607.91 654.25,614.16 C653.97,617.82 654.27,624.43 654.92,628.83 C659.27,658.64 657.38,675.49 646.85,700.48 L 643.05 709.50 L 647.58 704.60 C650.07,701.90 655.59,694.48 659.85,688.10 ZM 335.98 670.00 C335.14,657.96 332.90,651.07 326.93,642.13 C321.58,634.13 313.16,627.93 307.80,628.05 L 305.50 628.10 L 308.00 629.80 C318.76,637.09 326.51,649.63 331.63,668.00 C334.15,677.06 335.84,681.56 336.44,680.84 C336.59,680.65 336.39,675.78 335.98,670.00 ZM 679.55 632.16 C683.24,624.02 686.45,613.13 690.41,595.29 C692.38,586.37 694.00,578.60 694.00,578.02 C694.00,576.43 688.97,579.32 685.88,582.66 C677.72,591.51 674.67,601.79 674.50,621.00 C674.42,629.62 673.89,636.64 673.18,638.32 C672.53,639.86 672.01,642.11 672.03,643.32 C672.06,645.10 672.52,644.77 674.59,641.50 C675.98,639.30 678.21,635.10 679.55,632.16 ZM 216.09 618.50 C218.25,609.87 225.47,593.86 231.35,584.67 C235.52,578.15 235.90,576.88 232.88,579.60 C229.77,582.39 222.64,592.70 219.52,598.91 C215.08,607.76 211.98,621.83 212.15,632.38 L 212.29 641.50 L 213.19 634.00 C213.68,629.88 214.98,622.90 216.09,618.50 ZM 672.27 603.19 C674.68,592.47 679.68,582.50 685.51,576.75 C688.16,574.14 690.11,571.77 689.83,571.50 C689.55,571.22 687.34,572.04 684.91,573.32 C676.28,577.88 670.39,589.14 669.31,603.15 C668.96,607.63 669.09,611.00 669.61,611.00 C670.11,611.00 671.31,607.49 672.27,603.19 ZM 383.80 599.80 C385.47,598.13 385.32,590.51 383.59,589.07 C382.81,588.43 380.56,587.64 378.59,587.32 C375.03,586.74 375.00,586.77 375.00,590.30 C375.00,598.51 379.85,603.75 383.80,599.80 ZM 793.66 550.75 C792.87,539.39 791.12,532.65 786.49,523.30 C780.78,511.72 769.04,500.49 760.50,498.41 C757.88,497.78 758.29,498.35 763.70,502.89 C780.10,516.64 790.74,535.21 792.59,553.27 C793.61,563.27 794.40,561.41 793.66,550.75 ZM 489.72 761.00 C472.03,750.11 464.61,744.66 456.68,736.74 C440.00,720.08 439.06,701.03 454.45,691.53 C458.62,688.95 460.34,688.50 465.93,688.52 C474.14,688.54 483.39,692.64 489.87,699.13 C493.95,703.21 494.32,703.37 495.37,701.59 C495.99,700.54 498.31,697.40 500.53,694.63 C511.05,681.43 528.76,680.16 537.47,691.96 C545.44,702.76 542.86,717.84 529.71,737.50 C523.95,746.10 504.47,769.10 503.08,768.93 C502.76,768.89 496.75,765.32 489.72,761.00 ZM 510.53 753.25 C519.82,741.66 525.82,732.48 528.91,725.11 C531.44,719.09 532.80,709.61 531.26,708.66 C530.68,708.30 530.01,710.29 529.63,713.50 C528.31,724.73 522.42,735.38 509.94,749.09 C502.83,756.90 499.24,763.00 501.75,763.00 C502.29,763.00 506.24,758.61 510.53,753.25 ZM 516.13 737.80 C520.40,731.52 524.02,723.41 523.98,720.24 C523.96,719.28 522.86,721.15 521.53,724.39 C520.20,727.64 517.44,733.04 515.40,736.39 C510.75,744.04 510.77,744.00 511.40,744.00 C511.69,744.00 513.82,741.21 516.13,737.80 ZM 401.50 691.66 C395.27,689.61 392.37,687.81 387.19,682.78 C381.51,677.27 377.28,669.15 375.84,661.00 C371.80,638.07 395.34,615.48 419.62,618.96 C438.08,621.61 460.58,637.24 476.54,658.50 C483.16,667.32 489.00,679.39 489.00,684.27 L 489.00 688.30 L 482.32 679.40 C473.46,667.61 457.27,651.57 448.17,645.57 C444.13,642.91 437.61,639.34 433.67,637.63 C427.41,634.92 425.36,634.52 417.50,634.52 C406.97,634.51 402.40,636.37 396.77,642.96 C388.90,652.14 389.11,664.30 397.30,673.60 C402.48,679.49 407.54,682.00 414.21,682.00 C420.75,681.99 425.02,679.59 427.41,674.56 C429.47,670.20 428.66,666.75 424.60,662.70 C421.58,659.67 421.42,658.72 423.57,656.57 C425.85,654.29 429.42,654.64 432.79,657.48 C436.96,660.99 438.30,664.92 437.83,672.27 C437.32,680.41 433.56,686.32 426.65,689.88 C420.81,692.88 407.96,693.80 401.50,691.66 ZM 566.64 671.54 C558.38,668.59 553.00,660.61 553.00,651.29 C553.00,644.71 555.13,639.64 559.13,636.72 C561.26,635.16 562.15,635.01 563.88,635.93 C566.55,637.36 566.54,639.15 563.86,645.62 C561.24,651.95 561.83,655.03 566.59,659.79 C569.76,662.96 570.43,663.21 574.60,662.74 C577.51,662.41 581.02,660.97 584.33,658.75 C591.54,653.90 591.78,653.79 594.01,654.50 C597.43,655.59 596.66,661.27 592.45,665.92 C586.62,672.38 575.68,674.76 566.64,671.54 ZM 478.16 646.16 C459.84,617.23 447.45,602.79 436.09,597.17 C432.56,595.42 429.46,594.21 429.20,594.47 C428.94,594.73 429.72,597.23 430.92,600.04 C433.28,605.53 433.96,613.46 432.32,616.40 C431.50,617.86 431.17,617.08 430.62,612.45 C429.10,599.49 419.69,587.69 399.37,573.25 C385.60,563.46 377.43,559.74 362.71,556.55 C361.03,556.18 360.19,555.50 360.60,554.85 C361.53,553.33 374.33,554.53 384.87,557.13 C402.55,561.48 419.90,570.91 439.50,586.81 C450.58,595.80 456.84,602.69 465.54,615.45 C469.64,621.47 473.00,626.01 473.00,625.52 C473.00,625.04 470.70,620.17 467.89,614.70 C465.08,609.23 460.11,598.40 456.85,590.64 C449.42,572.99 444.01,564.25 433.80,553.47 C429.39,548.81 426.21,545.00 426.74,545.00 C428.47,545.00 439.40,552.66 445.37,558.06 C448.59,560.98 453.43,566.01 456.12,569.24 C459.36,573.13 461.01,574.50 461.02,573.30 C461.04,571.80 461.37,571.91 463.01,574.00 L 464.98 576.50 L 463.41 571.00 C461.02,562.59 456.41,555.60 445.97,544.57 C440.73,539.03 435.15,532.70 433.56,530.50 C429.40,524.72 427.07,522.83 411.50,512.54 C390.20,498.46 380.67,487.87 375.39,472.39 C370.48,458.00 372.25,438.44 379.22,429.90 C380.89,427.87 381.09,427.80 380.53,429.50 C378.57,435.44 376.78,451.02 377.54,455.58 L 378.35 460.50 L 379.14 454.06 C380.77,440.66 386.46,426.36 392.81,419.75 C397.69,414.66 398.95,415.00 394.70,420.25 C385.43,431.72 381.73,441.37 381.75,454.12 C381.75,458.86 382.25,463.59 382.85,464.62 C383.79,466.25 383.96,466.03 384.06,463.00 C384.16,460.01 384.44,460.48 385.96,466.16 C386.93,469.82 388.81,475.00 390.12,477.66 L 392.50 482.50 L 393.10 478.00 C393.43,475.52 393.77,474.24 393.85,475.13 C394.16,478.48 402.04,492.68 406.44,497.83 L 411.00 503.16 L 411.00 499.50 C411.00,494.31 407.38,480.72 403.84,472.66 C402.20,468.90 401.08,465.58 401.37,465.29 C402.00,464.67 411.78,479.65 415.27,486.59 C416.63,489.29 418.76,494.30 420.00,497.73 C421.24,501.16 422.65,503.72 423.14,503.42 C423.62,503.12 424.43,503.91 424.95,505.19 C425.79,507.28 425.88,507.31 425.98,505.50 C426.06,504.09 426.81,504.84 428.50,508.00 C430.86,512.40 430.91,512.43 430.95,509.50 C430.97,507.85 429.63,501.10 427.99,494.50 C424.32,479.84 423.24,467.40 424.98,459.91 C428.54,444.63 441.17,432.92 457.31,429.95 C466.08,428.33 468.59,429.24 460.79,431.21 C446.17,434.90 436.07,442.05 431.02,452.30 C425.06,464.41 424.78,475.46 430.06,489.95 C432.02,495.32 433.47,497.15 441.81,504.79 C447.05,509.58 452.50,515.34 453.93,517.58 C455.36,519.82 457.03,521.49 457.63,521.29 C458.23,521.09 459.30,522.30 459.99,523.98 C461.52,527.66 463.54,529.29 462.50,526.00 C461.36,522.41 463.73,524.55 466.15,529.30 C468.17,533.24 468.24,534.41 467.65,551.98 C467.19,565.75 467.36,571.91 468.35,576.00 C469.63,581.34 469.69,580.92 470.40,561.50 C471.14,541.07 470.59,534.97 467.45,528.90 C466.62,527.30 466.35,526.00 466.84,526.00 C468.61,526.00 472.90,531.23 474.68,535.56 C475.68,538.00 476.90,539.99 477.38,540.00 C478.54,540.00 477.29,527.61 475.55,521.83 C474.80,519.34 471.02,511.27 467.16,503.90 C463.30,496.53 459.14,487.38 457.92,483.56 C452.14,465.46 457.41,451.66 473.63,442.47 C488.70,433.92 498.95,426.62 497.67,425.33 C497.47,425.13 495.24,426.13 492.71,427.54 C490.19,428.95 481.95,432.10 474.40,434.55 C459.93,439.24 454.99,441.66 448.01,447.49 C442.42,452.16 441.25,450.92 446.68,446.08 C452.58,440.82 461.84,436.14 473.73,432.40 C479.36,430.64 487.01,427.46 490.73,425.35 C497.45,421.53 497.48,421.50 494.18,421.18 C491.44,420.92 491.07,420.62 492.06,419.43 C493.06,418.22 492.37,418.00 487.46,418.00 C480.20,418.00 481.00,417.07 489.74,415.38 C499.69,413.46 505.17,413.70 512.34,416.40 C520.46,419.46 537.71,423.00 544.48,423.00 C547.34,423.00 551.87,422.34 554.54,421.54 C557.22,420.73 559.65,420.32 559.95,420.63 C560.25,420.93 559.15,422.31 557.50,423.68 L 554.50 426.18 L 560.91 425.52 C567.49,424.85 578.00,421.38 583.75,417.98 C587.25,415.92 587.57,416.07 585.97,419.06 C584.34,422.11 577.75,424.91 568.77,426.37 C557.67,428.18 560.79,429.34 575.25,428.78 C587.72,428.30 592.99,426.83 608.50,419.55 C615.79,416.12 619.02,413.82 625.54,407.41 C629.96,403.06 636.09,397.39 639.15,394.82 C642.21,392.24 645.43,388.62 646.30,386.77 C648.17,382.84 654.25,356.61 656.43,343.11 C657.27,337.94 658.15,333.51 658.41,333.26 C659.31,332.35 665.96,335.18 671.68,338.89 C674.88,340.97 682.00,346.59 687.50,351.37 C693.00,356.15 699.75,361.17 702.50,362.51 C713.53,367.90 726.64,366.46 733.25,359.15 C735.17,357.02 736.96,354.66 737.23,353.89 C737.50,353.13 738.06,352.81 738.46,353.18 C739.85,354.47 736.88,360.90 733.52,363.84 C728.75,368.03 723.76,369.46 713.75,369.48 C708.94,369.49 705.00,369.78 705.00,370.13 C705.00,370.47 707.33,371.76 710.19,372.99 C716.70,375.79 723.69,375.40 730.90,371.83 C733.71,370.44 736.00,369.48 736.00,369.70 C736.00,371.79 732.36,376.08 729.38,377.49 C724.20,379.95 714.59,379.12 708.78,375.72 C706.41,374.33 698.63,367.38 691.49,360.28 C680.90,349.76 677.13,346.68 671.12,343.68 C661.13,338.70 657.33,338.90 666.77,343.91 C677.87,349.80 685.87,356.47 692.82,365.61 C705.62,382.46 718.38,386.92 738.00,381.41 L 740.50 380.70 L 738.08 383.35 C736.74,384.81 735.08,386.00 734.38,386.00 C733.69,386.00 732.80,386.52 732.40,387.16 C731.88,388.00 732.95,388.14 736.40,387.67 C741.66,386.95 741.78,388.03 736.74,390.63 C734.27,391.91 731.64,392.15 724.28,391.76 C711.50,391.10 702.80,386.91 694.02,377.22 L 687.92 370.50 L 690.07 375.39 C693.72,383.71 693.70,389.99 689.95,403.57 C685.15,421.00 681.08,430.39 669.69,450.37 C658.45,470.08 650.50,480.25 641.33,486.69 C638.08,488.97 633.19,492.67 630.48,494.92 C627.76,497.16 625.22,499.00 624.83,499.00 C624.45,499.00 625.64,495.74 627.47,491.75 C631.71,482.56 634.88,473.17 635.66,467.46 C636.31,462.72 638.00,461.30 638.00,465.50 C638.00,466.88 638.43,468.00 638.95,468.00 C640.10,468.00 641.38,462.03 641.42,456.50 C641.46,450.75 638.71,433.00 637.79,433.00 C637.35,433.00 636.95,430.41 636.88,427.25 L 636.76 421.50 L 635.48 426.50 L 634.19 431.50 L 634.01 426.00 C633.84,420.54 633.83,420.52 632.50,423.50 C631.77,425.15 630.37,430.28 629.40,434.89 C628.15,440.83 627.41,442.73 626.88,441.39 C625.68,438.33 625.93,430.95 627.44,424.51 C628.22,421.21 628.70,418.37 628.52,418.19 C628.34,418.01 626.46,421.04 624.35,424.92 C622.23,428.81 620.11,431.99 619.63,431.99 C619.16,432.00 619.08,428.96 619.46,425.25 L 620.16 418.50 L 617.47 421.13 C615.30,423.25 614.55,425.35 613.50,432.13 L 612.20 440.50 L 612.10 434.49 C612.04,431.19 612.42,427.03 612.93,425.24 C614.25,420.63 612.76,421.10 606.65,427.25 C595.26,438.72 592.31,450.82 598.00,462.84 C599.65,466.33 601.00,470.71 601.00,472.59 C601.00,478.04 602.79,476.53 604.08,470.00 C605.76,461.45 607.21,461.93 609.57,471.83 C612.19,482.76 610.95,494.15 606.65,498.86 C605.47,500.16 600.87,503.62 596.43,506.56 C579.69,517.62 570.29,530.56 564.58,550.44 C561.63,560.69 556.62,572.00 555.02,572.00 C554.24,572.00 554.23,571.43 555.00,570.00 C555.59,568.90 557.20,561.14 558.57,552.75 C562.91,526.36 566.71,518.08 580.18,505.73 C587.32,499.18 589.22,496.83 590.01,493.56 C590.56,491.33 591.47,488.07 592.04,486.31 C594.60,478.50 594.98,471.82 593.32,464.08 C591.31,454.66 591.32,444.83 593.36,439.25 C595.37,433.76 594.47,433.76 591.97,439.25 L 590.04 443.50 L 590.02 439.95 C590.00,436.84 589.70,436.41 587.54,436.45 C585.79,436.49 583.63,438.20 580.16,442.31 C576.14,447.07 574.84,449.62 573.02,456.31 C571.80,460.82 568.31,469.45 565.28,475.50 C558.96,488.08 548.26,512.05 546.97,516.50 C546.49,518.15 545.63,526.33 545.06,534.69 C544.32,545.52 543.43,551.45 541.96,555.39 C539.89,560.90 532.65,570.05 528.66,572.18 C526.59,573.29 526.58,573.27 528.30,570.91 C537.21,558.70 535.53,549.12 521.96,534.78 C518.18,530.77 513.95,525.44 512.57,522.93 C507.18,513.09 505.61,500.09 508.59,489.93 C509.82,485.75 511.43,483.29 515.57,479.25 C518.53,476.36 521.41,474.00 521.96,474.00 C522.51,474.00 521.16,476.77 518.97,480.16 C516.78,483.55 514.50,488.16 513.89,490.40 C512.16,496.83 513.17,505.84 516.33,512.07 C518.81,516.99 526.73,526.60 527.58,525.75 C527.77,525.56 527.23,523.18 526.39,520.45 C524.36,513.92 525.06,504.42 527.98,498.78 C529.20,496.43 533.01,491.58 536.44,488.00 C544.22,479.89 549.41,472.12 552.03,464.65 C554.06,458.87 556.64,443.31 555.72,442.39 C555.45,442.12 553.78,445.41 552.01,449.70 C547.94,459.55 546.16,462.54 538.21,472.83 C532.27,480.51 525.15,487.00 522.67,487.00 C522.10,487.00 524.36,484.40 527.69,481.21 C537.20,472.14 540.32,464.68 542.97,444.67 C543.54,440.36 544.28,435.75 544.61,434.42 C545.62,430.38 543.54,431.68 538.48,438.25 C531.93,446.75 531.66,446.99 532.24,443.75 C532.50,442.24 532.41,441.00 532.02,441.00 C531.63,441.00 527.36,445.30 522.54,450.55 C514.16,459.65 510.54,462.33 514.74,456.31 C518.00,451.64 528.19,431.86 527.63,431.30 C526.83,430.50 521.04,434.34 509.81,443.15 C504.21,447.54 496.67,452.86 493.06,454.97 C485.93,459.13 484.03,460.90 481.76,465.50 C477.65,473.84 478.99,482.75 486.94,500.00 C494.07,515.45 496.31,523.33 496.31,533.00 C496.31,541.40 494.88,545.66 489.63,552.86 C481.20,564.44 477.95,574.11 477.27,589.63 C476.72,602.20 477.52,613.00 478.99,613.00 C479.46,613.00 480.14,611.54 480.52,609.75 C482.17,601.78 487.89,592.48 497.58,582.00 C512.21,566.17 518.00,556.05 518.00,546.32 C518.00,544.49 518.45,543.00 519.00,543.00 C520.74,543.00 520.08,552.81 517.91,559.28 C515.19,567.41 513.67,569.77 501.84,584.29 C496.11,591.32 490.42,599.55 488.41,603.69 C481.32,618.30 480.41,632.93 485.51,650.34 C486.94,655.21 487.97,659.58 487.80,660.05 C487.64,660.53 483.30,654.27 478.16,646.16 ZM 490.26 545.02 C493.03,538.93 493.58,529.12 491.62,520.78 C490.75,517.08 487.23,507.86 483.80,500.28 L 477.56 486.50 L 477.53 476.50 C477.49,462.37 478.73,460.33 498.92,441.26 C507.80,432.87 516.74,425.09 518.78,423.97 L 522.50 421.92 L 517.31 422.31 C512.73,422.65 511.09,423.47 503.31,429.36 C498.47,433.02 489.01,438.75 482.30,442.08 C458.23,454.03 453.94,463.09 461.97,485.08 C463.63,489.63 467.53,497.80 470.64,503.24 C479.99,519.62 483.63,530.38 484.70,544.89 C485.26,552.50 485.45,553.11 486.77,551.39 C487.57,550.35 489.14,547.48 490.26,545.02 ZM 454.51 534.27 C453.36,525.02 450.38,518.53 444.28,511.93 C441.23,508.64 438.51,506.16 438.25,506.42 C437.78,506.89 440.55,513.36 445.56,523.50 C446.93,526.27 447.82,527.38 447.56,526.00 C447.12,523.59 447.15,523.57 448.58,525.48 C450.07,527.48 453.00,536.23 453.00,538.68 C453.00,539.41 453.50,540.00 454.12,540.00 C454.89,540.00 455.01,538.25 454.51,534.27 ZM 538.15 521.75 C537.96,517.76 538.40,512.03 539.13,509.00 L 540.45 503.50 L 541.01 508.50 L 541.57 513.50 L 542.53 508.06 C543.07,505.07 543.95,502.64 544.50,502.68 C545.05,502.71 548.13,497.28 551.35,490.62 C558.37,476.07 560.62,466.62 559.52,456.39 L 558.78 449.50 L 556.58 457.00 C553.60,467.13 549.39,475.04 541.47,485.43 C532.95,496.60 530.59,501.79 530.56,509.50 C530.54,514.19 531.23,516.97 533.71,522.25 C535.46,525.96 537.26,529.00 537.70,529.00 C538.14,529.00 538.34,525.74 538.15,521.75 ZM 649.56 455.23 C650.30,449.43 647.43,434.81 644.12,427.50 L 642.30 423.50 L 641.56 429.70 C640.94,434.86 641.18,436.86 643.02,441.70 C644.40,445.34 645.42,450.80 645.76,456.38 C646.24,464.36 646.42,465.02 647.59,462.88 C648.30,461.57 649.19,458.13 649.56,455.23 ZM 647.49 421.84 C644.70,408.99 642.30,403.40 643.48,412.50 C644.20,418.04 649.08,435.26 649.74,434.59 C649.97,434.36 648.96,428.62 647.49,421.84 ZM 688.73 389.75 C688.18,384.60 684.43,374.24 683.46,375.21 C683.06,375.60 685.40,386.08 687.58,393.75 C688.50,396.98 689.22,394.45 688.73,389.75 ZM 499.00 614.20 C499.00,602.93 519.17,583.31 529.83,584.19 L 533.50 584.50 L 525.19 589.31 C515.06,595.18 506.44,603.60 502.72,611.27 C501.19,614.42 499.73,617.00 499.47,617.00 C499.21,617.00 499.00,615.74 499.00,614.20 ZM 288.98 580.76 C275.54,565.24 269.25,552.57 267.07,536.68 C265.58,525.80 265.76,510.78 267.48,502.67 C268.89,496.02 273.58,484.25 274.47,485.14 C274.71,485.38 274.49,488.48 273.97,492.04 C271.63,508.27 273.30,533.85 277.69,549.00 C280.83,559.85 287.90,574.78 295.07,585.75 C298.63,591.19 296.47,589.42 288.98,580.76 ZM 569.00 561.73 C569.00,556.17 579.26,546.00 584.87,546.00 C588.73,546.00 591.20,549.85 589.02,552.47 C587.40,554.43 584.11,554.45 583.36,552.50 C582.14,549.31 578.61,551.57 572.66,559.36 C569.44,563.58 569.00,563.86 569.00,561.73 ZM 421.93 552.41 C416.71,548.50 407.66,544.15 401.30,542.49 C394.05,540.60 379.28,540.61 367.00,542.50 C354.90,544.37 339.04,544.39 332.13,542.55 C320.75,539.52 309.29,532.21 304.18,524.73 C300.89,519.91 296.97,510.00 297.05,506.71 C297.09,505.25 297.78,506.15 299.08,509.36 C303.37,519.93 310.98,527.80 321.72,532.75 C330.48,536.79 342.81,537.04 358.00,533.49 C364.42,531.98 374.02,530.56 379.73,530.27 C385.35,529.98 389.75,529.40 389.50,528.99 C388.35,527.13 374.93,520.05 369.99,518.68 C366.62,517.76 357.93,516.97 347.50,516.64 C329.72,516.07 324.71,515.07 318.82,510.87 C316.03,508.89 309.58,500.09 310.35,499.32 C310.52,499.14 312.50,500.74 314.75,502.87 C321.42,509.22 327.53,510.54 358.95,512.44 L 368.40 513.01 L 364.95 510.46 C363.05,509.05 358.12,505.92 354.00,503.50 C343.26,497.19 333.88,489.10 326.52,479.80 C318.04,469.07 314.45,462.09 309.39,446.50 L 305.18 433.50 L 305.08 443.50 C304.97,454.25 304.18,461.00 303.02,461.00 C302.27,461.00 300.71,433.98 300.58,418.68 C300.51,410.79 300.37,410.17 299.30,412.81 C298.63,414.43 297.43,419.91 296.61,424.98 C295.79,430.06 294.87,434.46 294.56,434.77 C294.25,435.08 294.02,431.10 294.03,425.92 C294.11,405.26 299.25,390.55 309.76,380.93 C316.67,374.60 324.25,370.90 337.17,367.55 C347.37,364.91 355.38,362.05 354.64,361.31 C354.40,361.07 352.46,361.34 350.34,361.91 C348.22,362.48 341.42,363.61 335.25,364.42 C313.62,367.27 307.54,372.11 295.07,396.44 C288.57,409.13 285.43,413.84 280.55,418.25 C276.53,421.87 268.00,424.42 268.00,422.00 C268.00,421.45 268.79,421.00 269.75,420.99 C272.92,420.99 279.00,416.50 282.48,411.60 C284.36,408.95 288.01,401.77 290.59,395.64 C297.35,379.54 299.28,376.02 304.53,370.18 C310.91,363.08 315.58,360.58 331.18,355.88 C338.51,353.68 346.33,350.80 348.57,349.50 C354.04,346.31 362.74,338.40 363.54,335.88 C364.37,333.27 363.62,332.54 361.87,334.24 C355.02,340.91 345.05,345.32 331.78,347.55 C319.25,349.65 313.98,351.47 308.60,355.58 C303.36,359.58 294.31,372.24 284.10,389.84 C280.17,396.63 275.16,404.82 272.98,408.03 C261.15,425.44 241.22,440.63 231.28,439.81 L 227.50 439.50 L 234.50 435.74 C247.42,428.81 264.40,414.67 271.62,404.84 C276.64,397.99 275.25,397.69 270.01,404.49 C264.19,412.03 255.09,420.29 249.77,422.87 C240.90,427.16 232.20,425.15 228.48,417.96 C226.21,413.56 226.66,413.46 231.02,417.40 C234.28,420.35 235.55,420.91 237.77,420.39 C242.41,419.31 249.00,416.17 249.00,415.03 C249.00,414.34 247.99,414.47 246.22,415.39 C244.68,416.18 241.65,417.15 239.47,417.53 C235.79,418.18 236.17,417.80 244.60,412.37 C259.83,402.55 261.04,401.28 253.47,403.03 C248.41,404.21 239.71,404.27 240.42,403.13 C240.72,402.65 243.22,402.04 245.99,401.77 C258.24,400.60 275.91,387.66 289.50,369.94 C302.20,353.37 313.78,342.66 325.30,336.85 C328.55,335.21 331.01,333.68 330.78,333.45 C329.89,332.56 315.24,337.29 309.64,340.27 C301.60,344.56 295.10,350.65 286.52,361.94 C282.53,367.20 277.54,373.46 275.43,375.84 C271.02,380.84 260.95,388.29 255.57,390.54 C251.30,392.32 239.29,392.69 237.69,391.09 C236.90,390.30 237.58,390.00 240.09,390.00 C245.30,390.00 254.92,387.24 259.94,384.30 C266.86,380.24 272.41,374.64 284.67,359.32 C290.92,351.53 298.16,343.27 300.76,340.97 C307.22,335.27 316.69,330.73 327.78,328.03 C339.62,325.14 346.87,320.56 354.22,311.35 C360.18,303.88 365.83,298.93 373.33,294.61 C379.14,291.26 378.91,290.26 372.87,292.64 C366.54,295.13 362.67,297.73 351.15,307.23 C339.47,316.87 334.65,319.58 326.52,321.08 C318.25,322.61 316.42,321.46 322.55,318.60 C333.46,313.52 341.25,304.64 361.65,274.00 C367.72,264.88 374.81,255.56 379.25,250.85 C380.76,249.24 382.00,247.57 382.00,247.13 C382.00,245.22 380.57,245.25 377.90,247.23 C371.57,251.91 373.96,245.59 381.99,236.41 C387.50,230.11 388.15,228.51 384.75,229.56 C378.20,231.58 368.88,238.68 362.98,246.15 C358.73,251.52 358.43,252.91 361.91,251.05 C363.06,250.43 364.00,250.17 364.00,250.47 C364.00,250.76 359.64,257.57 354.32,265.60 C346.41,277.51 342.97,281.69 335.57,288.33 C320.49,301.88 315.32,307.87 305.96,322.65 C295.33,339.43 279.28,360.64 272.28,367.17 C260.56,378.07 243.29,381.97 231.55,376.37 C227.72,374.53 224.93,370.99 228.36,372.31 C230.48,373.12 230.43,372.42 228.13,369.15 C225.57,365.52 224.80,362.64 225.57,359.59 C226.50,355.89 227.65,356.39 228.35,360.81 C230.21,372.43 246.72,374.39 261.00,364.70 C268.46,359.63 285.18,342.06 291.28,332.89 C296.88,324.46 303.03,312.29 302.97,309.77 C302.92,307.99 300.75,311.01 294.52,321.50 C287.85,332.74 282.07,338.73 267.25,349.75 C253.38,360.07 249.83,362.00 244.76,362.00 C241.59,362.00 240.79,361.57 239.98,359.43 C238.50,355.56 238.80,354.51 240.83,356.35 C241.83,357.26 243.82,358.00 245.24,358.00 C249.65,358.00 260.92,347.83 264.89,340.25 C266.00,338.12 265.88,338.00 262.65,338.00 C256.25,338.00 251.69,331.07 254.51,325.65 C255.29,324.14 255.80,319.95 255.75,315.30 C255.65,304.77 257.57,301.26 268.40,292.14 C276.91,284.98 282.79,278.45 281.71,277.38 C280.65,276.32 275.23,278.10 270.61,281.03 C267.55,282.97 266.00,283.51 266.00,282.62 C266.00,280.89 270.31,274.45 274.35,270.13 C277.42,266.86 277.43,266.79 275.00,267.52 C264.31,270.70 257.09,277.16 255.45,285.00 C254.82,288.00 254.60,288.21 253.93,286.50 C252.67,283.32 252.88,277.22 254.37,273.66 C255.12,271.87 258.71,267.04 262.36,262.95 C266.00,258.85 268.99,255.12 268.99,254.66 C269.00,253.60 260.15,254.68 253.36,256.56 C247.52,258.19 242.00,263.49 242.00,267.48 C242.00,270.37 240.45,271.62 239.60,269.41 C237.60,264.19 240.66,255.15 245.92,250.72 C247.69,249.23 252.37,247.08 256.32,245.94 C267.49,242.71 271.63,241.07 273.31,239.21 C274.76,237.61 274.31,237.50 266.18,237.46 C260.29,237.43 256.57,236.92 254.62,235.87 L 251.75 234.31 L 258.14 233.72 C261.65,233.39 265.42,232.76 266.51,232.33 C269.19,231.27 262.15,230.17 252.00,230.08 C243.28,230.00 243.01,230.13 228.47,241.51 C208.34,257.27 196.29,259.61 189.27,249.10 C185.45,243.39 186.24,238.58 192.69,228.26 C197.52,220.52 201.44,212.34 203.91,204.85 C206.65,196.50 210.75,190.27 217.35,184.39 C221.40,180.79 221.84,180.14 219.42,181.34 C217.72,182.19 214.01,184.72 211.17,186.96 C208.32,189.21 206.00,190.57 206.00,189.99 C206.00,186.99 209.28,181.93 213.96,177.72 C219.12,173.08 219.71,172.02 215.99,174.00 C212.06,176.11 213.01,172.90 217.70,168.23 C222.71,163.24 233.36,157.44 243.00,154.43 C254.26,150.92 251.01,150.31 233.00,152.56 L 228.50 153.13 L 232.50 150.56 C243.62,143.44 262.28,137.97 284.57,135.31 C292.51,134.36 298.98,133.34 298.96,133.04 C298.94,132.74 297.16,131.28 295.00,129.79 C288.66,125.40 285.64,119.92 285.26,112.13 L 284.93 105.50 L 286.59 108.50 C290.98,116.46 296.72,119.24 313.31,121.41 C319.76,122.26 325.90,123.41 326.95,123.98 C329.63,125.41 330.00,125.28 330.00,122.95 C330.00,119.09 327.07,115.24 320.29,110.21 C316.55,107.44 312.47,104.07 311.20,102.72 L 308.90 100.27 L 312.10 99.63 C314.61,99.13 316.01,99.54 318.65,101.55 C320.49,102.95 322.00,103.91 322.00,103.68 C322.00,103.44 321.33,101.34 320.50,99.00 C317.87,91.53 318.71,89.92 322.16,95.84 C325.39,101.39 333.46,108.51 340.45,111.98 C345.37,114.43 346.15,113.81 342.68,110.18 C341.20,108.65 340.00,107.08 340.00,106.70 C340.00,105.61 343.81,105.88 344.51,107.01 C344.85,107.57 347.02,108.98 349.32,110.14 L 353.50 112.25 L 351.00 109.52 C349.62,108.02 342.90,103.13 336.05,98.65 C325.19,91.54 323.95,90.46 326.33,90.18 C330.18,89.73 337.76,92.41 350.23,98.64 C359.90,103.47 371.82,107.64 380.77,109.34 L 384.04 109.96 L 379.77 103.90 C376.15,98.77 375.50,97.11 375.50,92.95 C375.50,89.03 376.01,87.53 378.04,85.51 L 380.57 82.97 L 380.54 88.89 C380.50,94.01 380.91,95.31 383.52,98.55 C386.52,102.25 396.57,108.76 397.65,107.69 C397.95,107.38 397.20,106.09 395.98,104.82 C392.81,101.51 390.01,96.79 390.00,94.76 C390.00,93.36 390.92,93.71 394.64,96.56 C397.20,98.51 405.18,102.92 412.39,106.36 C419.60,109.80 427.19,114.11 429.26,115.92 C432.17,118.47 433.64,119.10 435.76,118.70 C453.89,115.20 457.12,114.82 464.41,115.31 L 472.32 115.83 L 469.41 113.37 C467.16,111.46 466.95,111.02 468.50,111.43 C484.20,115.61 486.86,116.00 499.62,116.00 C516.38,116.00 521.65,117.68 529.89,125.66 L 535.46 131.06 L 541.48 128.42 C546.14,126.37 549.99,125.59 558.52,124.99 C577.78,123.61 581.35,121.73 593.43,106.56 C597.61,101.30 601.20,97.00 601.40,97.00 C601.59,97.00 603.43,96.30 605.47,95.45 C609.61,93.72 609.62,93.68 604.30,101.12 C600.46,106.49 600.09,108.47 603.07,107.69 C605.37,107.09 611.00,108.74 611.00,110.02 C611.00,110.47 609.64,111.14 607.98,111.51 C604.94,112.17 599.00,116.47 599.00,117.99 C599.00,118.44 601.10,118.17 603.66,117.40 C606.22,116.63 611.47,116.00 615.32,116.00 C619.17,116.00 628.29,114.84 635.59,113.43 C642.90,112.01 650.14,111.00 651.69,111.18 L 654.50 111.50 L 649.50 116.45 C646.75,119.17 645.40,121.04 646.50,120.61 C655.85,116.96 666.86,113.93 672.83,113.38 C676.77,113.01 680.00,112.98 680.00,113.31 C680.00,113.64 677.94,114.82 675.42,115.93 C672.90,117.05 668.96,119.41 666.67,121.18 C658.75,127.31 650.93,134.26 651.42,134.75 C651.69,135.02 658.19,134.04 665.87,132.56 C673.55,131.08 681.78,130.02 684.17,130.19 L 688.50 130.50 L 681.75 134.30 C678.04,136.39 675.00,138.44 675.00,138.87 C675.00,139.29 679.36,140.87 684.69,142.38 C699.14,146.45 709.53,150.86 713.74,154.69 L 717.50 158.11 L 712.64 157.48 C709.29,157.04 707.99,157.18 708.45,157.92 C708.82,158.52 709.65,159.00 710.31,159.01 C714.17,159.04 736.87,172.88 734.41,173.70 C733.87,173.88 729.65,172.89 725.04,171.51 C713.23,167.98 712.34,168.39 721.23,173.26 C731.00,178.61 739.58,186.20 743.70,193.12 C749.10,202.20 748.91,202.92 742.52,197.50 C738.70,194.26 736.90,193.20 737.41,194.50 C737.84,195.60 739.76,201.00 741.69,206.49 C744.06,213.23 747.04,219.16 750.85,224.70 C761.42,240.06 762.64,243.79 759.04,249.70 C756.11,254.50 752.49,256.44 746.60,256.35 C739.51,256.25 732.70,253.03 721.28,244.41 C713.91,238.84 710.49,236.90 707.21,236.40 C702.55,235.71 694.34,236.32 693.21,237.46 C692.83,237.84 695.07,240.48 698.19,243.33 C704.76,249.32 709.97,257.00 707.47,257.00 C706.62,257.00 704.16,256.10 702.00,255.00 C699.84,253.90 697.77,253.00 697.39,253.00 C697.02,253.00 699.04,255.47 701.89,258.48 C710.27,267.34 713.96,278.14 711.10,285.45 C710.49,287.00 710.09,286.40 709.11,282.52 C708.43,279.84 706.94,276.26 705.80,274.57 C703.56,271.28 695.99,264.04 694.75,264.02 C693.67,263.99 693.84,268.86 695.09,273.50 C695.68,275.70 698.81,281.55 702.04,286.50 C708.90,296.99 710.82,303.28 709.10,309.66 C707.40,315.94 705.01,318.36 700.65,318.20 C698.37,318.11 697.00,318.52 697.01,319.28 C697.03,321.57 702.88,330.72 706.02,333.36 C709.67,336.43 710.74,336.57 713.84,334.40 C715.10,333.52 716.38,333.05 716.69,333.35 C717.68,334.35 716.17,336.84 713.51,338.59 C709.82,341.00 705.43,339.46 694.69,331.96 C685.36,325.46 680.23,319.53 675.21,309.49 C671.66,302.37 660.79,288.13 660.22,289.85 C659.52,291.94 671.88,315.67 677.88,323.76 C684.90,333.22 691.45,339.04 699.75,343.16 C705.36,345.96 706.66,346.22 712.50,345.75 C720.03,345.15 720.86,346.29 714.77,348.88 L 710.54 350.67 L 717.78 352.44 C724.78,354.16 730.00,357.04 730.00,359.19 C730.00,359.80 729.07,359.96 727.75,359.56 C726.51,359.20 720.55,357.60 714.50,356.02 C696.02,351.18 691.39,348.95 676.55,337.78 C672.18,334.49 666.22,330.45 663.32,328.81 C656.62,325.03 653.85,321.71 648.89,311.50 C644.58,302.65 634.60,290.40 620.52,276.68 C611.21,267.60 605.06,262.72 596.00,257.21 C591.06,254.21 589.47,252.69 589.39,250.88 C589.11,244.60 589.03,244.35 587.92,246.25 C585.93,249.67 585.00,247.90 585.00,240.65 C585.00,236.61 584.05,226.38 582.89,217.90 C580.48,200.27 580.71,183.77 583.49,175.66 C585.50,169.78 584.94,168.73 582.20,173.20 C577.94,180.13 576.75,198.81 579.48,215.50 C581.58,228.25 582.55,243.77 581.17,242.50 C579.42,240.87 574.05,212.16 573.39,200.89 C572.46,185.20 575.42,168.10 580.30,160.90 C582.94,157.00 585.89,155.47 584.02,158.97 C583.37,160.18 583.00,161.33 583.19,161.53 C583.39,161.72 586.26,160.54 589.57,158.90 C593.81,156.80 597.70,155.74 602.79,155.31 C606.76,154.98 610.00,154.34 610.00,153.89 C610.00,151.37 597.42,150.49 591.45,152.59 C589.62,153.24 589.60,153.17 591.16,151.52 C592.07,150.55 595.22,148.92 598.16,147.91 L 603.50 146.07 L 598.75 146.03 C593.85,146.00 593.10,145.36 595.25,143.07 C596.28,141.98 596.00,141.86 593.67,142.41 C591.81,142.85 591.05,142.72 591.48,142.04 C591.83,141.47 594.12,141.00 596.56,141.00 C599.22,141.00 601.00,140.54 601.00,139.86 C601.00,139.04 597.88,138.86 590.00,139.24 C579.65,139.73 579.00,139.65 579.00,137.84 C579.00,134.87 575.58,137.19 572.88,142.00 C569.07,148.77 567.76,146.74 570.57,138.44 C572.27,133.43 571.93,131.98 569.51,133.99 C568.67,134.69 566.58,135.43 564.88,135.63 C562.46,135.91 561.92,135.66 562.40,134.49 C564.40,129.53 564.41,129.71 562.24,130.87 C561.11,131.48 559.13,133.67 557.85,135.74 C556.16,138.47 555.44,139.03 555.20,137.80 C555.02,136.87 555.35,135.21 555.94,134.12 C557.53,131.15 557.22,130.49 555.14,132.37 C554.11,133.30 552.47,135.85 551.49,138.03 C548.93,143.71 547.74,142.99 548.52,136.25 C549.13,130.99 549.06,130.67 547.69,132.53 C546.87,133.65 545.60,136.57 544.87,139.03 L 543.54 143.50 L 543.20 139.07 L 542.87 134.63 L 540.44 137.57 C538.18,140.30 537.91,140.38 536.64,138.75 C534.92,136.54 534.25,136.54 533.77,138.75 C533.50,140.00 532.77,139.31 531.21,136.32 C528.71,131.53 527.01,130.06 526.99,132.69 C526.98,134.07 526.36,133.72 524.42,131.25 C523.01,129.46 521.44,128.00 520.93,128.00 C520.42,128.00 519.99,129.46 519.97,131.25 C519.93,134.78 519.91,134.77 515.44,128.56 C513.29,125.56 512.93,127.11 514.54,132.46 C516.80,139.99 516.19,141.05 513.06,135.00 C511.50,131.98 509.30,128.67 508.18,127.66 C506.18,125.85 506.15,125.86 506.73,128.08 C507.20,129.89 506.99,130.21 505.66,129.70 C503.69,128.94 503.65,129.14 505.16,132.46 C507.06,136.62 505.24,136.64 500.98,132.48 C498.09,129.66 497.00,129.06 497.00,130.30 C497.00,132.57 496.36,132.48 487.83,129.08 C483.80,127.47 478.70,125.87 476.50,125.52 L 472.50 124.88 L 476.50 126.86 C481.73,129.45 479.73,129.46 468.92,126.93 C464.07,125.79 458.84,125.02 457.30,125.21 C454.79,125.53 455.19,125.90 461.25,128.85 C464.96,130.66 468.00,132.49 468.00,132.90 C468.00,133.32 464.29,133.04 459.75,132.28 C451.35,130.87 439.20,131.22 436.13,132.96 C434.87,133.67 435.53,134.06 439.00,134.68 L 443.50 135.48 L 438.50 135.99 C434.05,136.45 434.94,136.70 446.50,138.26 C453.65,139.23 464.06,140.48 469.64,141.04 C481.20,142.19 489.36,144.12 495.94,147.24 C502.49,150.34 502.63,150.39 501.25,148.93 C500.56,148.20 500.00,147.00 500.00,146.27 C500.00,142.52 515.97,155.24 522.68,164.35 C531.39,176.16 538.03,192.29 540.90,208.64 C541.47,211.86 542.63,221.25 543.47,229.50 C544.32,237.75 545.26,246.07 545.57,248.00 C546.10,251.32 546.04,251.40 544.54,249.53 C542.32,246.76 541.32,242.40 539.51,227.50 C535.34,193.26 528.65,175.41 515.63,163.82 C506.53,155.71 487.00,148.02 462.50,142.91 C453.23,140.97 431.40,140.22 432.42,141.87 C432.71,142.34 436.56,143.55 440.98,144.56 C445.39,145.56 449.00,146.74 449.00,147.19 C449.00,147.63 450.31,148.00 451.90,148.00 C454.83,148.00 473.15,153.99 478.19,156.60 C479.68,157.37 481.49,157.98 482.20,157.95 C482.92,157.92 480.05,156.13 475.82,153.98 C467.10,149.51 465.24,147.74 470.20,148.61 C478.11,149.99 491.98,155.54 493.44,157.90 C493.76,158.42 496.24,159.58 498.94,160.48 C506.51,163.00 511.82,167.37 514.53,173.32 C518.56,182.17 522.05,196.05 522.69,205.72 C523.35,215.79 524.42,216.93 525.52,208.75 C526.36,202.52 526.93,201.32 528.18,203.14 C529.61,205.21 528.07,196.56 525.78,189.57 C524.70,186.27 522.45,180.85 520.78,177.53 C518.32,172.64 518.12,171.84 519.76,173.31 C522.26,175.54 527.12,185.35 530.02,194.00 C531.72,199.06 532.39,204.37 533.06,218.00 C534.19,240.82 534.53,242.86 538.09,248.49 C539.75,251.10 540.89,253.44 540.63,253.70 C540.37,253.96 538.14,252.99 535.67,251.55 L 531.18 248.91 L 531.70 252.83 C532.03,255.26 531.79,257.01 531.07,257.46 C530.18,258.01 530.18,258.52 531.07,259.59 C532.06,260.77 531.54,260.90 527.75,260.38 C521.08,259.46 521.09,261.48 527.77,263.38 C536.38,265.83 537.12,266.64 531.92,267.91 C523.93,269.86 514.82,275.26 506.98,282.70 C502.80,286.66 497.39,291.04 494.94,292.44 C492.50,293.83 490.88,294.98 491.35,294.99 C493.02,295.01 501.98,290.07 509.58,284.94 C516.92,280.00 528.70,274.37 529.68,275.35 C529.93,275.60 527.97,277.28 525.32,279.08 C522.67,280.88 517.58,284.88 514.00,287.97 C498.49,301.38 492.48,304.58 480.07,305.99 C473.53,306.74 470.22,307.80 462.91,311.49 C443.71,321.19 428.65,331.72 423.76,338.87 C418.60,346.42 408.32,358.51 403.24,363.00 L 398.50 367.19 L 403.50 364.46 C406.25,362.96 410.95,359.88 413.95,357.62 C425.39,348.98 423.65,351.14 407.59,365.50 C398.37,373.75 390.99,378.66 385.65,380.09 C383.53,380.66 381.99,381.32 382.22,381.56 C383.63,382.96 402.33,376.04 407.95,372.03 C410.94,369.91 414.00,369.34 414.00,370.92 C414.00,371.43 412.43,373.91 410.51,376.42 C406.69,381.43 406.92,382.03 411.50,379.00 C415.33,376.46 416.37,376.48 415.69,379.09 C415.22,380.89 415.48,381.10 417.57,380.57 C421.83,379.50 420.19,381.62 414.25,384.84 C404.76,389.98 404.73,389.93 416.79,389.29 C424.91,388.86 428.00,389.02 428.00,389.85 C428.00,390.48 426.54,391.00 424.75,391.00 C422.96,391.01 414.98,392.35 407.00,393.99 C389.05,397.67 381.11,401.35 371.13,410.58 C367.21,414.21 364.00,416.90 364.00,416.55 C364.00,416.21 364.96,414.03 366.13,411.71 L 368.26 407.50 L 366.02 409.50 C359.28,415.49 354.39,426.68 353.97,437.08 C353.34,452.48 354.37,455.46 356.98,445.75 C357.69,443.14 358.76,441.00 359.38,441.00 C360.00,440.99 361.97,438.14 363.77,434.66 C375.26,412.45 401.16,396.00 424.65,396.00 C432.03,396.00 444.69,398.75 450.03,401.52 C455.12,404.15 453.05,404.02 445.00,401.19 C438.51,398.91 435.88,398.56 425.50,398.55 C415.04,398.55 412.57,398.88 406.24,401.18 C390.30,406.95 375.59,418.92 369.75,430.86 C366.15,438.23 366.19,437.54 366.89,476.50 C367.04,485.37 366.73,493.61 366.19,495.00 L 365.21 497.50 L 364.20 495.00 C363.65,493.62 362.31,490.25 361.21,487.50 C360.12,484.75 356.74,477.54 353.70,471.48 C347.57,459.25 345.00,450.84 345.00,443.00 C345.00,436.71 349.69,422.10 354.56,413.22 C358.28,406.42 358.66,405.00 356.77,405.00 C353.73,405.00 343.43,418.57 338.91,428.54 C335.56,435.92 335.45,437.59 337.52,449.43 C339.40,460.22 342.45,467.86 349.66,479.80 C357.12,492.14 362.69,498.13 372.96,504.86 C388.01,514.73 393.20,519.02 408.07,533.91 C421.90,547.77 426.84,553.50 425.81,554.52 C425.56,554.77 423.81,553.82 421.93,552.41 ZM 319.50 446.00 C319.11,443.18 318.59,441.07 318.35,441.32 C318.10,441.57 318.21,444.08 318.58,446.92 C318.96,449.75 319.48,451.86 319.74,451.60 C319.99,451.34 319.89,448.82 319.50,446.00 ZM 330.65 435.00 C331.03,434.11 331.79,435.95 332.52,439.50 C333.68,445.16 333.75,445.28 333.89,441.50 C334.39,427.60 340.14,414.26 350.32,403.37 C354.14,399.28 357.02,395.68 356.71,395.38 C356.41,395.08 352.75,397.13 348.58,399.94 C331.57,411.42 329.03,415.34 326.99,433.17 C325.80,443.58 326.73,447.85 328.70,441.00 C329.42,438.52 330.29,435.83 330.65,435.00 ZM 323.91 429.75 C324.05,419.20 325.70,413.13 331.34,402.53 C336.08,393.62 335.56,392.84 329.09,399.17 C324.06,404.09 320.76,412.05 320.21,420.59 C319.76,427.67 321.42,438.00 323.01,438.00 C323.45,438.00 323.86,434.29 323.91,429.75 ZM 323.47 386.14 C328.31,381.67 328.42,381.21 324.13,383.44 C320.35,385.39 314.38,392.16 312.52,396.60 C309.92,402.82 310.83,402.74 314.99,396.38 C317.18,393.02 321.00,388.42 323.47,386.14 ZM 359.33 350.06 C360.06,349.16 359.26,349.35 357.17,350.56 C355.34,351.63 353.32,353.15 352.67,353.94 C351.94,354.84 352.74,354.65 354.83,353.44 C356.66,352.37 358.68,350.85 359.33,350.06 ZM 287.35 321.13 C292.87,310.38 296.74,299.69 298.58,290.16 C302.11,271.92 298.96,276.76 287.31,307.50 C284.81,314.10 280.35,324.45 277.42,330.50 L 272.07 341.50 L 277.50 335.63 C280.50,332.39 284.90,325.91 287.35,321.13 ZM 357.79 330.24 C361.97,325.49 366.43,318.10 365.62,317.28 C365.27,316.94 363.31,318.64 361.26,321.08 C359.21,323.51 355.05,328.14 352.02,331.36 L 346.50 337.22 L 350.50 335.60 C352.70,334.71 355.98,332.29 357.79,330.24 ZM 267.46 333.38 C268.98,332.79 272.53,327.19 271.82,326.49 C271.64,326.31 268.63,326.04 265.14,325.90 C259.97,325.69 258.60,325.97 257.81,327.38 C256.30,330.07 259.35,334.00 262.94,334.00 C264.53,334.00 266.56,333.72 267.46,333.38 ZM 690.68 316.89 C689.36,313.38 685.76,305.55 682.69,299.50 C677.55,289.39 677.10,288.79 677.05,292.14 C676.94,300.04 683.68,316.83 689.36,322.81 C693.43,327.11 693.84,325.27 690.68,316.89 ZM 271.38 322.62 C273.75,321.63 275.15,320.08 276.31,317.18 C278.05,312.83 282.18,293.85 281.53,293.20 C280.94,292.61 272.07,298.90 267.30,303.30 C264.99,305.42 262.58,308.73 261.95,310.65 C260.46,315.17 261.51,320.54 264.26,322.47 C266.93,324.34 267.23,324.35 271.38,322.62 ZM 445.92 314.36 C447.29,313.16 444.03,314.28 442.44,315.56 C440.61,317.02 440.64,317.04 443.00,315.92 C444.38,315.26 445.69,314.57 445.92,314.36 ZM 702.96 312.07 C704.80,308.63 704.08,304.57 700.72,299.48 C695.83,292.06 692.71,288.00 691.91,288.00 C689.61,288.00 694.20,306.21 697.64,310.75 C700.48,314.50 701.52,314.76 702.96,312.07 ZM 448.27 299.34 C447.59,299.07 446.24,299.05 445.27,299.31 C444.30,299.56 444.85,299.78 446.50,299.81 C448.15,299.83 448.95,299.62 448.27,299.34 ZM 459.00 293.83 C464.98,291.94 470.36,289.03 465.50,290.30 C464.40,290.59 461.70,291.11 459.50,291.45 C457.30,291.79 454.15,292.30 452.50,292.58 C450.04,293.00 449.81,292.89 451.25,291.99 C453.68,290.48 453.44,289.02 450.75,288.91 C449.51,288.87 450.75,288.27 453.50,287.59 C459.41,286.13 466.06,282.84 468.07,280.40 C469.38,278.80 469.29,278.71 467.00,279.35 C465.62,279.74 460.67,280.33 456.00,280.66 C448.43,281.19 446.29,280.92 436.45,278.13 C430.38,276.41 424.44,275.00 423.26,275.00 C419.38,275.00 419.53,277.82 423.50,279.48 C425.47,280.30 425.47,280.32 423.54,280.77 C421.85,281.16 421.98,281.41 424.54,282.53 C426.90,283.57 427.09,283.86 425.50,283.95 C424.37,284.02 426.72,285.58 430.91,287.55 C438.55,291.13 439.94,292.70 433.94,290.98 C432.06,290.44 429.61,290.04 428.51,290.08 C427.40,290.13 429.12,290.93 432.31,291.86 C435.51,292.79 438.08,293.99 438.02,294.53 C437.89,295.80 443.44,296.70 448.50,296.24 C450.70,296.04 455.42,294.95 459.00,293.83 ZM 672.99 269.00 C672.38,265.42 671.65,261.38 671.36,260.00 C670.93,257.96 671.05,257.78 671.99,259.00 C673.16,260.51 672.96,257.67 671.35,249.60 C670.88,247.22 671.06,246.81 672.39,247.32 C674.36,248.07 674.38,246.79 672.47,241.50 C671.68,239.30 671.02,236.09 671.02,234.38 C671.01,232.66 670.32,229.32 669.49,226.97 C668.66,224.61 668.21,222.45 668.50,222.17 C668.79,221.88 670.25,222.80 671.76,224.21 C673.27,225.62 675.99,227.53 677.82,228.45 C681.03,230.07 681.10,230.06 680.11,228.20 C679.54,227.15 675.23,223.01 670.51,219.01 C665.79,215.01 662.13,211.53 662.37,211.30 C662.61,211.06 664.69,211.82 667.00,213.00 C674.77,216.96 672.25,214.20 662.09,207.61 C654.04,202.38 652.00,200.59 652.00,198.72 C652.00,196.61 647.42,191.00 645.70,191.00 C645.31,191.00 645.00,191.91 645.00,193.02 C645.00,194.71 644.56,194.93 642.25,194.39 C639.61,193.77 639.67,193.92 643.75,198.16 C648.20,202.78 649.02,204.33 646.50,203.36 C644.56,202.62 644.56,204.39 646.49,205.99 C647.32,206.68 649.38,209.67 651.09,212.65 C654.14,217.99 654.41,221.48 651.68,220.43 C650.70,220.05 651.31,222.84 653.70,229.70 C655.58,235.09 659.98,249.40 663.47,261.50 C666.96,273.60 670.65,286.20 671.66,289.50 L 673.50 295.50 L 673.80 285.50 C673.96,280.00 673.60,272.58 672.99,269.00 ZM 309.54 285.96 C310.55,284.84 314.79,281.36 318.94,278.23 C340.90,261.70 344.12,256.55 327.20,265.02 C318.22,269.52 310.68,276.85 307.82,283.88 C306.00,288.37 306.64,289.16 309.54,285.96 ZM 655.90 260.00 C655.99,254.11 656.33,251.96 657.00,253.00 C657.53,253.82 658.01,255.62 658.06,257.00 C658.12,258.38 658.39,258.92 658.67,258.22 C658.95,257.52 658.64,254.59 657.98,251.72 C656.74,246.38 649.04,225.62 648.50,226.18 C648.34,226.36 649.49,236.40 651.07,248.50 C652.64,260.60 654.00,271.40 654.09,272.50 C654.44,277.17 655.77,267.98 655.90,260.00 ZM 636.02 260.83 C634.84,256.96 633.72,253.95 633.52,254.15 C633.19,254.48 635.08,263.91 636.70,270.00 L 637.36 272.50 L 637.76 270.19 C637.98,268.91 637.19,264.70 636.02,260.83 ZM 299.60 263.75 C300.40,262.24 300.67,261.00 300.21,261.00 C299.30,261.00 294.98,268.21 295.03,269.64 C295.07,270.74 297.71,267.34 299.60,263.75 ZM 409.27 262.26 C412.05,260.74 417.52,256.53 421.42,252.89 C425.31,249.26 430.98,245.04 434.00,243.52 C437.02,242.00 442.20,238.87 445.50,236.55 C453.84,230.70 454.95,230.21 451.56,233.85 C448.38,237.27 449.08,237.99 453.03,235.35 C457.44,232.40 461.11,228.57 462.66,225.29 C464.02,222.44 465.97,220.80 473.44,216.24 C475.92,214.72 479.53,215.40 483.25,218.08 C486.84,220.67 487.06,218.34 483.60,214.32 C481.68,212.09 480.41,211.55 477.23,211.63 C472.02,211.77 462.92,216.66 461.20,220.25 C460.48,221.76 459.58,223.01 459.20,223.02 C453.55,223.16 443.14,226.95 430.41,233.51 L 415.50 241.20 L 425.00 240.67 L 434.50 240.15 L 424.50 242.85 C415.09,245.39 390.57,257.02 392.95,257.81 C393.46,257.99 396.93,257.22 400.65,256.10 C404.36,254.99 407.58,254.25 407.79,254.46 C408.01,254.68 406.34,256.07 404.09,257.56 C401.84,259.05 400.00,260.48 400.00,260.74 C400.00,261.01 401.69,260.93 403.75,260.57 C408.34,259.78 407.29,260.65 397.75,265.55 C394.04,267.46 391.00,269.24 391.00,269.50 C391.00,270.30 403.87,265.20 409.27,262.26 ZM 628.20 265.96 C630.92,263.23 631.17,262.48 630.58,258.80 C629.65,252.97 628.07,250.49 628.03,254.80 C627.96,262.03 622.50,266.93 616.07,265.51 C612.26,264.68 612.13,265.47 615.75,267.43 C620.35,269.92 624.75,269.40 628.20,265.96 ZM 483.92 260.47 C487.97,258.53 491.07,256.73 490.81,256.47 C490.55,256.22 487.12,257.13 483.19,258.50 C470.24,263.03 461.56,261.27 457.71,253.34 C456.14,250.11 455.02,249.00 453.32,249.00 C450.72,249.00 442.99,251.89 443.01,252.86 C443.02,253.21 445.83,255.05 449.26,256.94 C464.47,265.31 472.18,266.10 483.92,260.47 ZM 622.25 258.23 C624.16,256.55 624.70,249.55 623.00,248.50 C622.40,248.13 622.00,249.46 622.00,251.85 C622.00,255.10 621.41,256.32 618.75,258.56 C615.77,261.06 615.71,261.23 618.00,260.53 C619.38,260.11 621.29,259.07 622.25,258.23 ZM 304.00 249.33 C304.00,248.56 298.15,252.01 295.12,254.55 C289.44,259.33 291.89,259.22 298.00,254.42 C301.30,251.83 304.00,249.53 304.00,249.33 ZM 481.53 253.89 C487.85,252.30 491.04,248.79 490.86,243.61 C490.78,241.05 490.57,240.44 490.32,242.00 C489.04,249.78 484.95,253.00 476.35,253.00 C470.56,252.99 465.78,250.40 463.52,246.04 C461.77,242.65 460.00,242.04 460.00,244.83 C460.00,247.97 466.19,252.55 472.50,254.07 C476.79,255.11 476.68,255.11 481.53,253.89 ZM 607.00 250.58 C607.00,249.80 607.27,248.45 607.61,247.58 C608.01,246.54 607.66,246.00 606.61,246.00 C605.49,246.00 605.00,246.91 605.00,249.00 C605.00,250.65 605.45,252.00 606.00,252.00 C606.55,252.00 607.00,251.36 607.00,250.58 ZM 629.40 243.99 C625.71,237.22 621.83,234.50 615.83,234.50 C610.86,234.50 606.70,237.20 605.69,241.09 C605.04,243.55 605.36,243.50 608.46,240.62 C611.60,237.72 615.75,236.78 620.05,238.01 C624.07,239.17 626.49,241.32 629.22,246.19 C630.40,248.27 631.55,249.79 631.78,249.56 C632.01,249.32 630.94,246.82 629.40,243.99 ZM 500.70 247.22 C499.81,246.23 497.98,242.97 496.64,239.97 C493.97,233.99 489.09,228.72 484.68,227.06 C477.08,224.19 467.36,226.88 460.96,233.61 C458.48,236.22 458.12,236.93 459.69,236.12 C460.90,235.50 462.19,234.50 462.57,233.89 C463.81,231.87 473.46,228.02 477.28,228.01 C479.36,228.00 482.54,228.62 484.34,229.37 C487.57,230.72 495.00,238.39 495.00,240.38 C495.00,241.95 500.14,249.00 501.29,249.00 C501.85,249.00 501.58,248.20 500.70,247.22 ZM 635.12 241.45 C633.41,237.80 630.62,233.05 628.92,230.90 L 625.83 227.00 L 628.47 227.00 C629.98,227.00 630.85,226.57 630.50,226.00 C630.16,225.45 628.60,225.00 627.02,225.00 C620.80,225.00 619.31,222.98 623.75,220.57 C625.26,219.75 625.89,219.06 625.14,219.04 C624.17,219.01 623.90,217.87 624.17,215.00 C624.38,212.80 624.29,211.00 623.98,211.00 C623.66,211.00 622.83,209.41 622.13,207.47 C620.23,202.24 616.86,199.15 610.63,196.96 C605.52,195.17 599.83,194.84 598.41,196.26 C598.09,196.58 597.44,198.56 596.96,200.66 C595.94,205.20 596.85,213.83 598.15,211.82 C598.84,210.75 599.18,210.78 599.98,212.00 C600.53,212.82 600.98,214.37 600.98,215.42 C601.00,217.25 601.12,217.24 603.31,215.17 C606.35,212.32 607.36,212.43 606.59,215.50 C605.85,218.47 607.58,218.90 608.50,215.99 C609.39,213.20 610.84,214.39 610.26,217.43 C609.87,219.44 610.27,220.03 612.32,220.54 C615.17,221.26 616.60,223.80 615.03,225.37 C613.23,227.17 613.92,229.00 616.40,229.00 C619.19,229.00 633.21,241.56 635.62,246.24 C638.60,252.00 638.18,247.99 635.12,241.45 ZM 324.71 240.27 C336.32,230.07 343.51,222.51 346.53,217.36 C349.89,211.62 349.57,209.73 345.96,213.96 C342.11,218.47 342.16,216.08 346.06,209.75 C347.74,207.02 348.94,204.61 348.72,204.39 C348.51,204.17 345.49,205.41 342.02,207.15 C338.19,209.06 332.32,213.49 327.10,218.40 C322.37,222.86 316.71,228.17 314.53,230.20 C312.35,232.23 310.78,234.11 311.04,234.38 C311.31,234.64 313.93,233.34 316.87,231.49 C322.72,227.80 328.00,225.64 328.00,226.92 C328.00,228.05 318.26,242.98 315.72,245.75 C311.09,250.79 316.48,247.51 324.71,240.27 ZM 619.35 241.75 C618.75,240.79 613.86,240.80 612.35,241.77 C611.71,242.17 613.13,242.50 615.50,242.50 C617.87,242.50 619.60,242.16 619.35,241.75 ZM 338.20 234.04 C341.39,230.76 344.00,227.37 344.00,226.50 C344.00,223.25 339.44,227.40 331.10,238.25 C329.99,239.69 329.99,240.00 331.08,240.00 C331.81,240.00 335.01,237.32 338.20,234.04 ZM 368.41 234.01 C372.94,230.72 377.82,226.78 379.24,225.26 C380.67,223.74 383.00,221.69 384.42,220.70 C387.99,218.22 387.67,216.60 383.97,218.52 C381.04,220.03 379.00,219.82 379.00,218.01 C379.00,217.53 381.25,214.33 384.00,210.90 C389.90,203.55 390.63,200.72 385.75,204.14 C380.06,208.12 369.90,218.33 366.42,223.56 C362.16,229.97 357.69,240.00 359.09,240.00 C359.68,240.00 363.87,237.30 368.41,234.01 ZM 483.34 238.55 C483.65,237.75 483.10,236.11 482.13,234.91 C480.16,232.48 473.78,231.88 470.40,233.82 C468.87,234.70 469.22,234.80 472.23,234.33 C475.12,233.88 476.11,234.11 476.59,235.37 C476.93,236.27 477.79,237.00 478.50,237.00 C479.21,237.00 480.05,237.68 480.36,238.50 C481.09,240.41 482.62,240.43 483.34,238.55 ZM 430.99 229.37 C433.46,228.07 434.69,227.00 433.71,227.00 C431.41,227.00 426.04,229.33 423.50,231.45 C421.54,233.07 421.55,233.09 424.00,232.42 C425.38,232.05 428.52,230.67 430.99,229.37 ZM 734.00 232.58 C734.00,232.35 731.94,228.68 729.42,224.42 C726.90,220.15 721.67,210.78 717.80,203.58 C713.93,196.39 708.83,187.78 706.48,184.45 C701.67,177.67 690.54,166.85 685.93,164.46 C681.93,162.40 673.49,161.39 672.58,162.88 C672.15,163.57 672.68,164.00 673.95,164.00 C680.17,164.00 692.97,173.87 701.54,185.26 C704.11,188.68 709.70,198.68 713.97,207.49 C720.42,220.80 722.59,224.30 726.82,228.25 C731.23,232.36 734.00,234.03 734.00,232.58 ZM 229.10 228.92 C235.62,225.52 244.19,215.81 250.89,204.25 C262.14,184.83 277.08,173.23 299.71,166.34 C307.35,164.01 310.27,163.66 322.00,163.64 C339.02,163.61 342.48,164.97 331.33,167.33 C327.03,168.24 319.00,169.69 313.50,170.55 C301.11,172.49 289.98,174.93 288.00,176.16 C286.95,176.81 287.41,176.93 289.50,176.56 C291.15,176.27 299.70,175.10 308.50,173.97 C323.25,172.07 336.12,169.43 342.56,166.98 C344.32,166.31 345.06,166.32 344.83,167.00 C344.39,168.34 320.37,179.50 311.50,182.48 C307.65,183.77 300.65,185.29 295.95,185.86 C287.33,186.89 276.61,190.20 275.36,192.22 C274.89,192.99 276.42,193.11 280.56,192.62 C299.45,190.40 336.06,176.73 348.89,167.11 C351.85,164.88 355.79,162.56 357.64,161.95 C359.49,161.34 361.00,160.47 361.00,160.02 C361.00,159.57 358.86,158.70 356.25,158.08 C347.10,155.93 336.34,155.06 317.50,154.95 C299.91,154.85 298.75,154.73 301.85,153.37 C303.69,152.57 309.22,151.31 314.14,150.58 C323.97,149.12 325.59,148.44 321.57,147.43 C316.23,146.09 301.76,147.54 296.00,150.00 C279.30,157.11 256.57,175.60 244.10,192.22 C236.77,201.99 240.09,200.62 249.93,189.81 C271.39,166.25 284.60,158.64 307.90,156.42 C317.49,155.50 316.71,156.98 305.73,160.51 C280.45,168.66 266.56,178.59 249.79,200.52 C240.10,213.18 237.55,216.04 232.00,220.42 C226.66,224.65 224.62,224.87 222.39,221.47 C221.04,219.41 220.82,217.19 221.23,209.46 C221.63,201.68 221.49,200.18 220.40,201.08 C216.18,204.58 213.19,221.75 215.91,226.82 C218.01,230.75 223.84,231.68 229.10,228.92 ZM 588.55 213.75 C587.92,199.03 588.05,196.89 589.89,190.99 C591.43,186.10 592.99,183.46 596.22,180.35 C600.52,176.19 607.64,172.00 610.40,172.00 C611.22,172.00 612.20,171.48 612.60,170.84 C613.11,170.01 612.37,169.89 609.91,170.41 C601.96,172.08 597.00,172.65 597.00,171.87 C597.00,170.34 605.09,166.89 610.10,166.30 C616.87,165.50 617.34,163.99 610.81,164.02 C603.86,164.05 598.51,166.59 593.18,172.40 C586.64,179.52 584.02,185.96 583.99,195.00 C583.97,201.66 587.92,230.00 588.87,230.00 C589.08,230.00 588.93,222.69 588.55,213.75 ZM 693.30 222.29 C691.12,219.66 687.90,215.38 686.14,212.78 C682.23,207.00 677.72,203.46 671.05,200.93 C664.65,198.49 663.22,198.48 665.39,200.87 C666.32,201.91 666.95,203.17 666.79,203.68 C666.26,205.37 695.61,228.72 696.79,227.54 C697.04,227.29 695.47,224.92 693.30,222.29 ZM 311.57 221.75 C314.53,219.96 316.96,217.88 316.97,217.12 C317.03,214.27 321.47,208.66 325.85,205.88 C333.36,201.12 335.60,202.72 329.80,208.70 C328.05,210.52 327.03,211.99 327.55,211.97 C328.87,211.93 335.32,205.94 344.08,196.61 C350.85,189.41 351.24,188.78 348.50,189.43 C344.16,190.47 334.01,195.46 327.83,199.59 L 322.50 203.15 L 327.00 198.48 C332.30,192.98 340.89,186.67 352.28,179.89 L 360.50 175.00 L 352.77 175.00 C344.53,175.00 334.47,177.63 330.10,180.92 C326.51,183.64 328.24,185.38 333.79,184.62 L 338.31 184.00 L 336.41 186.12 C335.36,187.29 331.29,190.66 327.37,193.62 C319.11,199.85 316.88,202.57 311.06,213.50 C308.72,217.90 306.11,222.29 305.25,223.25 C302.75,226.06 305.55,225.39 311.57,221.75 ZM 436.00 223.00 C436.83,222.47 437.05,222.03 436.50,222.03 C435.95,222.03 434.83,222.47 434.00,223.00 C433.17,223.53 432.95,223.97 433.50,223.97 C434.05,223.97 435.17,223.53 436.00,223.00 ZM 431.00 219.50 C432.60,218.58 432.94,218.06 431.94,218.04 C431.08,218.02 429.51,218.66 428.44,219.47 C425.96,221.35 427.73,221.37 431.00,219.50 ZM 439.57 208.60 L 448.50 206.15 L 442.84 206.07 C433.21,205.95 419.27,211.62 413.47,218.03 C412.18,219.45 414.41,218.73 421.15,215.54 C426.36,213.07 434.65,209.94 439.57,208.60 ZM 297.87 216.57 C300.86,215.02 304.23,210.43 308.38,202.23 C311.82,195.44 311.82,193.58 308.38,194.44 C303.08,195.77 300.00,196.24 300.00,195.71 C300.00,195.41 301.58,194.19 303.50,193.00 C310.56,188.64 306.44,188.50 296.78,192.78 C294.29,193.87 290.37,196.48 288.06,198.56 C284.00,202.23 280.36,207.69 281.33,208.66 C281.59,208.92 284.21,207.78 287.15,206.12 C292.03,203.38 308.46,196.00 309.69,196.00 C309.98,196.00 308.82,197.58 307.13,199.50 C303.45,203.70 293.70,218.00 294.52,218.00 C294.84,218.00 296.35,217.35 297.87,216.57 ZM 504.41 214.00 C504.73,214.00 505.01,214.79 505.03,215.75 C505.06,217.28 505.21,217.25 506.24,215.50 C506.92,214.34 507.44,209.31 507.46,203.50 C507.50,193.81 507.38,193.25 503.53,185.55 C496.29,171.04 481.82,158.65 469.65,156.54 C465.11,155.75 465.41,157.49 470.00,158.50 C473.06,159.17 475.15,161.02 472.81,160.98 C472.09,160.96 468.16,160.06 464.07,158.98 C456.38,156.93 447.48,156.41 445.18,157.87 C444.37,158.38 446.69,158.93 451.18,159.29 C455.21,159.61 461.84,161.03 465.93,162.44 C474.30,165.33 476.39,165.61 473.56,163.47 C471.83,162.16 471.80,162.00 473.35,162.00 C477.00,162.00 482.85,166.12 490.34,173.96 C494.63,178.45 497.94,182.65 497.71,183.31 C497.47,183.98 495.88,184.38 494.08,184.24 C492.32,184.09 489.90,184.66 488.71,185.49 C487.53,186.32 485.52,187.00 484.25,187.00 C482.98,187.00 481.69,187.64 481.39,188.43 C481.09,189.22 479.54,190.31 477.96,190.87 C474.34,192.13 473.54,195.12 475.27,201.00 C476.58,205.47 476.63,205.51 481.90,206.15 C484.82,206.51 487.70,207.30 488.30,207.90 C490.43,210.03 492.03,209.20 491.00,206.50 C490.39,204.89 490.40,204.00 491.02,204.00 C491.56,204.00 492.00,204.45 492.00,205.00 C492.00,205.55 492.50,206.00 493.11,206.00 C493.73,206.00 493.95,205.23 493.61,204.25 C493.19,203.05 493.62,203.24 495.00,204.86 C496.10,206.16 497.00,207.85 497.00,208.61 C497.00,210.61 498.78,210.33 499.28,208.25 C499.51,207.29 499.51,208.17 499.27,210.21 C499.03,212.25 499.16,214.92 499.55,216.16 L 500.26 218.40 L 502.04 216.20 C503.02,214.99 504.09,214.00 504.41,214.00 ZM 701.50 201.39 C697.35,198.18 691.58,195.82 683.62,194.08 C675.34,192.27 671.84,190.91 668.90,188.35 C667.95,187.53 663.86,186.72 658.90,186.38 L 650.50 185.79 L 654.49 188.60 C658.82,191.64 670.38,196.39 676.00,197.44 C679.18,198.03 679.33,197.96 677.69,196.64 C672.65,192.60 682.92,194.81 695.16,200.40 C701.44,203.27 704.56,203.75 701.50,201.39 ZM 378.03 199.35 C381.46,197.07 389.00,189.77 389.00,188.73 C389.00,187.74 378.38,195.77 375.60,198.88 C373.32,201.41 374.58,201.65 378.03,199.35 ZM 518.55 193.76 C517.84,187.51 514.46,178.00 512.95,178.00 C512.30,178.00 514.42,186.99 517.72,198.25 C518.81,201.97 519.23,199.72 518.55,193.76 ZM 690.00 190.54 C690.00,189.47 680.80,184.89 671.75,181.45 C657.71,176.11 658.88,174.86 674.39,178.61 C680.89,180.18 686.19,182.44 693.00,186.57 L 697.50 189.29 L 694.16 185.76 C689.41,180.73 682.44,177.25 671.77,174.57 C660.84,171.83 649.54,170.35 652.25,172.02 C654.86,173.63 654.37,175.00 651.19,175.00 C649.65,175.00 647.53,175.63 646.48,176.39 C644.75,177.66 645.31,178.01 652.94,180.42 C657.54,181.87 664.72,183.54 668.90,184.11 C675.85,185.08 685.10,188.10 687.45,190.16 C688.47,191.06 690.00,191.29 690.00,190.54 ZM 664.00 168.04 C664.00,166.33 655.94,164.82 650.61,165.54 C644.25,166.40 642.79,167.21 646.01,168.11 C649.86,169.18 664.00,169.13 664.00,168.04 ZM 462.50 164.00 C461.40,163.53 456.45,163.20 451.50,163.26 L 442.50 163.38 L 452.00 164.00 C457.23,164.34 462.17,164.67 463.00,164.74 C463.83,164.80 463.60,164.47 462.50,164.00 ZM 665.37 158.98 C665.85,158.53 664.17,157.85 661.63,157.47 C659.10,157.09 657.27,156.37 657.58,155.88 C657.88,155.38 656.76,154.70 655.08,154.37 C651.21,153.59 651.93,152.36 656.76,151.53 C658.81,151.17 661.62,150.23 663.00,149.44 C665.33,148.09 665.13,148.04 660.00,148.63 C653.00,149.44 639.87,152.73 638.61,153.99 C637.42,155.18 643.30,157.85 651.00,159.62 C656.46,160.87 663.70,160.54 665.37,158.98 ZM 358.95 149.92 C361.73,149.32 364.00,148.48 364.00,148.04 C364.00,147.61 361.86,146.33 359.25,145.21 C355.48,143.58 355.01,143.15 357.00,143.10 C358.38,143.07 361.18,143.44 363.24,143.92 C369.37,145.34 366.48,143.23 359.24,140.99 C353.20,139.13 336.70,137.96 335.36,139.31 C335.12,139.55 336.85,140.91 339.21,142.34 C343.45,144.89 343.46,144.92 340.58,144.96 C336.08,145.02 338.52,146.39 344.31,147.05 C349.54,147.64 349.39,147.96 343.00,149.79 C339.81,150.71 340.14,150.80 346.70,150.90 C350.66,150.95 356.17,150.51 358.95,149.92 ZM 439.65 146.78 C435.73,146.25 431.24,146.22 429.17,146.71 C426.39,147.37 427.96,147.58 436.03,147.63 L 446.50 147.71 L 439.65 146.78 ZM 649.25 143.85 C652.96,143.28 656.00,142.46 656.00,142.02 C656.00,140.74 638.77,142.13 635.75,143.66 C634.24,144.42 633.00,145.26 633.00,145.51 C633.00,146.02 639.13,145.39 649.25,143.85 ZM 359.92 133.37 C356.73,129.90 352.05,128.00 346.78,128.02 C339.72,128.04 339.13,129.57 345.68,130.86 C348.88,131.49 353.75,132.88 356.50,133.95 C359.25,135.03 361.69,135.93 361.92,135.95 C362.16,135.98 361.26,134.82 359.92,133.37 ZM 642.69 133.49 C644.68,132.65 646.06,131.72 645.75,131.41 C645.44,131.11 643.46,131.77 641.34,132.88 C636.79,135.28 637.56,135.63 642.69,133.49 ZM 574.39 545.56 C573.67,543.71 576.18,539.10 579.66,535.86 C588.35,527.78 607.91,517.44 629.50,509.51 C644.87,503.87 648.15,502.29 654.40,497.52 C660.83,492.62 658.74,496.29 651.37,502.86 C645.17,508.38 636.72,513.16 624.75,517.91 C608.43,524.38 585.24,537.20 578.71,543.37 C575.96,545.96 574.77,546.56 574.39,545.56 ZM 683.00 544.83 C683.00,544.50 685.00,538.22 687.45,530.87 C699.26,495.37 700.63,463.01 691.56,433.50 C689.58,427.08 689.61,426.91 692.06,430.50 C695.86,436.08 699.75,444.46 702.50,453.00 C709.82,475.79 704.71,511.23 690.77,534.33 C686.18,541.94 683.00,546.23 683.00,544.83 ZM 703.51 516.50 C709.39,499.17 712.11,485.17 712.27,471.50 C712.44,457.19 710.74,448.09 706.14,438.66 C704.08,434.44 702.71,431.00 703.09,431.00 C703.46,431.00 705.43,432.69 707.46,434.75 C723.42,450.95 723.06,484.21 706.58,516.77 C699.60,530.57 698.76,530.50 703.51,516.50 ZM 613.00 491.52 C613.00,491.26 614.57,488.58 616.49,485.59 C623.88,474.03 625.75,464.07 622.51,453.41 C620.89,448.05 620.45,441.40 621.89,444.00 C622.35,444.83 623.74,449.66 624.98,454.75 C627.63,465.68 627.24,470.54 622.97,479.50 C620.07,485.61 615.40,492.00 613.85,492.00 C613.38,492.00 613.00,491.78 613.00,491.52 ZM 668.00 470.00 C668.00,465.97 668.22,462.89 668.49,463.16 C669.23,463.90 669.36,475.98 668.63,476.70 C668.28,477.05 668.00,474.03 668.00,470.00 ZM 244.50 465.32 C250.11,462.41 255.93,458.14 252.50,459.45 C245.20,462.23 241.78,463.11 239.31,462.82 C236.65,462.52 236.79,462.34 242.00,459.33 C247.12,456.38 253.54,451.15 252.82,450.52 C252.64,450.37 249.12,450.94 245.00,451.78 C239.93,452.83 236.20,453.06 233.50,452.50 L 229.50 451.67 L 235.00 450.86 C240.84,450.00 263.84,439.14 273.89,432.50 C276.85,430.54 279.49,429.15 279.75,429.42 C280.66,430.33 261.79,457.96 257.79,461.57 C252.90,465.99 248.29,468.02 243.28,467.95 L 239.50 467.91 L 244.50 465.32 ZM 411.00 455.72 C411.00,455.01 411.60,452.14 412.32,449.33 C415.26,438.01 424.68,428.29 437.33,423.53 C445.93,420.29 446.73,420.36 440.50,423.80 C426.34,431.61 418.59,439.41 414.42,450.02 C411.69,456.99 411.00,458.14 411.00,455.72 ZM 390.13 433.00 C394.51,423.90 410.90,411.65 421.50,409.55 C423.15,409.23 420.28,411.06 415.12,413.63 C405.92,418.22 396.43,426.17 390.21,434.50 L 387.96 437.50 L 390.13 433.00 ZM 448.08 410.40 C444.55,409.62 441.40,408.70 441.08,408.35 C440.76,407.99 441.62,408.01 443.00,408.38 C444.38,408.75 454.64,409.34 465.81,409.68 C477.19,410.04 485.54,410.68 484.81,411.14 C482.67,412.50 455.13,411.94 448.08,410.40 ZM 576.00 410.09 C576.00,409.60 575.17,409.40 574.15,409.67 C571.60,410.34 565.00,407.43 565.00,405.63 C565.00,404.83 564.44,403.98 563.75,403.75 C563.04,403.51 563.80,402.61 565.50,401.67 C568.35,400.09 567.31,400.03 545.50,400.60 C519.95,401.28 514.38,400.60 500.14,395.12 C495.94,393.50 488.67,391.66 484.00,391.02 C467.93,388.84 463.49,387.84 459.39,385.46 C454.86,382.84 452.90,380.33 451.11,374.87 C449.57,370.17 446.77,367.62 444.07,368.48 C440.78,369.52 441.52,366.62 445.43,363.20 C451.56,357.82 458.58,357.81 463.61,363.18 C467.56,367.40 479.55,375.18 485.56,377.43 C488.28,378.44 494.33,381.66 499.00,384.58 C503.67,387.50 511.10,391.13 515.50,392.66 C522.72,395.15 524.82,395.42 537.00,395.41 C547.80,395.40 552.16,394.95 558.80,393.16 C569.34,390.33 603.87,375.54 602.70,374.37 C602.42,374.08 600.71,374.61 598.91,375.54 C597.12,376.47 590.89,379.04 585.07,381.24 C576.79,384.37 573.05,385.26 567.79,385.33 C564.10,385.38 560.75,385.09 560.35,384.68 C559.33,383.66 571.00,372.06 572.48,372.63 C573.14,372.88 574.26,372.39 574.97,371.53 C575.96,370.35 576.59,370.25 577.63,371.11 C578.38,371.73 579.00,371.84 579.00,371.35 C579.00,370.85 580.24,369.05 581.75,367.34 C584.29,364.46 590.00,354.80 590.00,353.38 C590.00,353.03 589.33,353.32 588.50,354.00 C586.69,355.50 586.48,353.93 588.25,352.13 C589.26,351.10 588.97,350.99 586.75,351.54 C583.86,352.25 583.18,351.22 585.20,349.20 C586.13,348.27 585.77,348.00 583.58,348.00 C581.18,348.00 580.94,347.77 582.00,346.50 C583.04,345.25 582.90,345.00 581.12,345.00 C578.76,345.00 578.41,343.99 580.16,342.24 C581.53,340.87 579.64,338.00 577.38,338.00 C575.58,338.00 575.62,335.88 577.47,333.44 C579.75,330.42 579.30,329.00 576.06,329.00 C572.80,329.00 571.02,327.22 573.03,325.98 C573.93,325.42 573.59,325.07 571.91,324.82 C569.51,324.45 569.51,324.44 572.50,322.67 L 575.50 320.90 L 572.81 321.45 C569.06,322.23 568.37,320.40 571.72,318.59 C574.33,317.17 574.36,317.08 572.25,317.04 C569.87,317.00 569.02,313.73 571.06,312.46 C571.73,312.05 571.50,311.36 570.42,310.56 C568.84,309.41 568.89,309.19 571.01,307.70 C572.95,306.35 573.11,305.84 572.04,304.54 C570.84,303.10 571.30,302.54 573.37,302.92 C573.85,303.01 573.93,302.28 573.55,301.29 C572.25,297.95 572.50,297.62 577.97,295.39 C580.99,294.16 583.61,292.56 583.80,291.83 C584.83,287.99 584.94,287.90 586.99,288.99 C588.48,289.79 589.00,289.76 589.00,288.89 C589.00,287.41 609.44,288.32 615.50,290.06 C622.74,292.15 631.42,297.04 636.23,301.75 C641.32,306.74 641.83,308.41 637.31,305.27 C631.84,301.49 626.25,300.00 617.51,300.00 C611.66,300.00 607.98,300.52 605.53,301.69 C598.87,304.86 600.99,305.72 616.75,306.23 C630.12,306.66 632.08,306.96 637.72,309.47 C642.93,311.79 644.26,312.91 645.97,316.43 C648.54,321.75 648.53,326.04 645.92,334.64 C643.16,343.74 640.08,348.25 634.83,350.88 L 630.50 353.06 L 634.52 352.44 C638.38,351.84 638.58,351.95 639.77,355.23 C641.15,359.07 641.41,364.00 640.22,364.00 C639.78,364.00 638.62,362.62 637.62,360.93 C635.15,356.75 634.38,358.00 636.37,362.98 C638.97,369.47 638.54,375.62 635.24,378.91 C633.72,380.43 631.83,381.89 631.03,382.16 C629.85,382.55 630.00,383.18 631.79,385.46 C633.00,387.00 634.00,389.36 634.00,390.68 C634.00,394.53 631.22,398.91 628.31,399.64 C626.14,400.18 625.14,399.72 622.79,397.10 C620.76,394.82 619.37,394.06 618.02,394.50 C616.89,394.85 616.33,395.68 616.64,396.52 C617.34,398.33 613.54,403.69 610.97,404.51 C609.89,404.85 609.00,405.67 609.00,406.32 C609.00,407.56 599.11,407.80 597.18,406.61 C596.62,406.27 595.94,406.55 595.66,407.24 C595.28,408.19 594.89,408.14 594.08,407.00 C593.40,406.06 592.72,405.87 592.25,406.50 C591.22,407.87 588.00,408.03 588.00,406.70 C588.00,406.11 586.74,406.84 585.20,408.31 C582.46,410.93 576.00,412.18 576.00,410.09 ZM 608.35 390.25 C608.60,389.84 606.71,389.63 604.15,389.79 C596.22,390.29 595.23,390.72 601.69,390.86 C605.10,390.94 608.09,390.66 608.35,390.25 ZM 465.43 375.12 C465.73,374.63 464.63,373.68 462.99,372.99 C460.04,371.77 458.94,370.00 461.12,370.00 C461.90,370.00 461.86,369.54 461.00,368.50 C459.83,367.09 455.00,366.34 455.00,367.57 C455.00,368.55 457.20,372.43 458.78,374.25 C460.39,376.09 464.50,376.62 465.43,375.12 ZM 632.56 368.44 C632.18,366.44 631.65,365.02 631.37,365.30 C631.10,365.57 631.18,367.44 631.56,369.44 C631.93,371.45 632.47,372.87 632.74,372.59 C633.02,372.32 632.93,370.45 632.56,368.44 ZM 634.38 367.12 C634.02,365.37 633.53,364.14 633.27,364.39 C633.02,364.65 633.12,366.27 633.50,368.00 C634.40,372.10 635.21,371.29 634.38,367.12 ZM 637.14 338.03 L 639.50 336.07 L 635.83 336.03 C633.81,336.01 631.45,335.73 630.58,335.39 C628.69,334.67 628.43,337.03 630.20,338.80 C631.95,340.55 634.45,340.27 637.14,338.03 ZM 606.50 337.00 C606.87,336.40 605.49,336.00 603.00,336.00 C600.51,336.00 599.13,336.40 599.50,337.00 C599.84,337.55 601.41,338.00 603.00,338.00 C604.59,338.00 606.16,337.55 606.50,337.00 ZM 594.50 329.92 C594.50,329.11 593.31,328.36 591.75,328.18 C588.66,327.83 588.09,329.37 590.75,330.92 C592.93,332.19 594.50,331.77 594.50,329.92 ZM 642.00 321.07 C642.00,320.56 641.29,319.44 640.43,318.57 C638.69,316.84 634.00,316.42 634.00,318.00 C634.00,318.55 633.97,319.34 633.94,319.75 C633.88,320.55 637.36,321.74 640.25,321.90 C641.21,321.96 642.00,321.58 642.00,321.07 ZM 610.75 316.75 C610.53,316.06 609.19,314.85 607.79,314.06 C605.52,312.78 604.94,312.81 602.62,314.33 C598.61,316.96 599.46,318.00 605.58,318.00 C609.60,318.00 611.05,317.65 610.75,316.75 ZM 538.16 242.28 C536.22,237.44 535.05,230.68 535.14,225.00 L 535.24 219.50 L 536.06 223.50 C537.93,232.60 539.90,244.44 539.59,244.74 C539.42,244.92 538.77,243.81 538.16,242.28 ZM 509.58 164.73 C507.42,163.51 505.45,161.88 505.20,161.12 C504.65,159.45 510.24,162.52 512.72,165.25 C514.78,167.51 514.33,167.44 509.58,164.73 ZM 488.50 141.54 C486.85,140.78 486.17,140.15 487.00,140.13 C487.83,140.11 489.85,140.71 491.50,141.46 C493.15,142.22 493.83,142.85 493.00,142.87 C492.17,142.89 490.15,142.29 488.50,141.54 Z" fill="rgba(0,0,0,1)"/>
</g>
</svg>