<svg xmlns="http://www.w3.org/2000/svg" width="195" height="148" viewBox="0 0 195 148">
<g>
<path d="M 99.71 129.04 C91.99,123.27 77.82,116.75 58.26,109.97 C44.43,105.18 32.83,98.76 26.43,92.36 C20.50,86.43 17.59,79.02 17.16,68.72 C16.84,60.81 17.07,59.39 19.47,54.48 C27.54,37.97 52.73,32.44 67.14,44.00 L 70.78 46.92 L 71.48 42.21 C72.35,36.26 74.89,30.44 78.48,26.20 C82.12,21.89 91.28,17.32 98.68,16.13 C112.43,13.91 122.39,19.42 127.02,31.78 C130.36,40.70 129.71,41.57 123.87,35.97 C111.61,24.21 92.01,23.83 81.31,35.13 C77.38,39.28 74.05,46.41 74.02,50.75 L 74.00 54.00 L 69.23 50.57 C62.65,45.84 56.59,44.43 49.79,46.03 C38.34,48.72 31.03,54.66 28.51,63.31 C25.68,73.05 29.78,85.66 38.44,93.86 C44.88,99.95 52.33,103.76 66.00,107.95 C78.27,111.72 90.59,117.61 96.75,122.65 C99.15,124.62 101.23,126.06 101.37,125.86 C101.52,125.66 102.16,123.69 102.79,121.48 C103.42,119.27 104.62,116.57 105.46,115.48 C106.87,113.64 106.90,113.71 105.94,116.59 C105.38,118.30 104.59,122.43 104.21,125.78 L 103.50 131.87 L 99.71 129.04 ZM 121.00 115.35 C120.18,115.06 117.62,113.97 115.31,112.93 C110.02,110.55 97.88,107.20 91.97,106.49 C78.39,104.85 75.94,93.61 87.85,87.58 C90.56,86.20 94.71,82.78 97.13,79.93 C107.05,68.21 107.33,68.00 112.88,68.00 C117.08,68.00 118.53,68.51 121.21,70.90 C124.22,73.59 124.50,74.37 125.04,81.80 C125.53,88.39 126.30,91.13 129.39,97.23 C132.56,103.46 133.05,105.23 132.46,108.38 C131.53,113.34 125.56,116.97 121.00,115.35 ZM 133.32 94.99 C126.79,92.36 127.73,81.77 135.04,75.62 C142.86,69.04 152.00,72.12 152.00,81.35 C152.00,90.97 141.80,98.41 133.32,94.99 ZM 83.18 80.75 C77.92,78.22 75.31,67.17 78.51,60.98 C80.30,57.53 82.81,56.00 86.71,56.00 C92.95,56.00 97.00,61.71 97.00,70.53 C97.00,75.41 96.62,76.54 94.08,79.08 C90.96,82.20 87.34,82.75 83.18,80.75 ZM 123.92 68.08 C121.06,65.22 120.80,64.46 121.26,60.38 C121.89,54.76 126.25,49.06 131.42,47.09 C139.11,44.16 145.56,50.83 143.08,59.14 C141.25,65.23 136.38,70.00 131.30,70.69 C127.55,71.19 126.76,70.91 123.92,68.08 ZM 104.39 64.02 C101.38,62.80 98.16,58.36 97.41,54.40 C95.35,43.40 104.21,34.25 111.78,39.56 C119.56,45.01 118.73,60.13 110.47,63.58 C108.59,64.36 106.94,64.97 106.78,64.94 C106.63,64.90 105.55,64.49 104.39,64.02 Z" fill="rgb(235, 7, 7)"/>
</g>
</svg>